<svg xmlns="http://www.w3.org/2000/svg" xmlns:xlink="http://www.w3.org/1999/xlink" contentStyleType="text/css" data-diagram-type="SEQUENCE" height="521px" preserveAspectRatio="none" style="width:1167px;height:521px;background:#FFFFFF;" version="1.1" viewBox="0 0 1167 521" width="1167px" zoomAndPan="magnify"><title>LemonQwest App - Achievement Unlock Sequence (v1, 2025-07)</title><defs/><g><text fill="#000000" font-family="Verdana" font-size="22" font-weight="bold" lengthAdjust="spacing" textLength="796.6084" x="191.7063" y="35.4209">LemonQwest App - Achievement Unlock Sequence (v1, 2025-07)</text><g><title>User</title><rect fill="#000000" fill-opacity="0.00000" height="311.3281" width="8" x="24.9551" y="128.9063"/><line style="stroke:#000000;stroke-width:1;" x1="28" x2="28" y1="128.9063" y2="440.2344"/></g><g><title>App UI</title><rect fill="#000000" fill-opacity="0.00000" height="311.3281" width="8" x="289.1504" y="128.9063"/><line style="stroke:#000000;stroke-width:1;" x1="293.062" x2="293.062" y1="128.9063" y2="440.2344"/></g><g><title>AchievementService</title><rect fill="#000000" fill-opacity="0.00000" height="311.3281" width="8" x="520.7378" y="128.9063"/><line style="stroke:#000000;stroke-width:1;" x1="523.7861" x2="523.7861" y1="128.9063" y2="440.2344"/></g><g><title>UserRepository</title><rect fill="#000000" fill-opacity="0.00000" height="311.3281" width="8" x="773.9136" y="128.9063"/><line style="stroke:#000000;stroke-width:1;" x1="777.4224" x2="777.4224" y1="128.9063" y2="440.2344"/></g><g><title>AchievementRepository</title><rect fill="#000000" fill-opacity="0.00000" height="311.3281" width="8" x="955.022" y="128.9063"/><line style="stroke:#000000;stroke-width:1;" x1="958.4048" x2="958.4048" y1="128.9063" y2="440.2344"/></g><g><title>AuditTrail</title><rect fill="#000000" fill-opacity="0.00000" height="311.3281" width="8" x="1116.3301" y="128.9063"/><line style="stroke:#000000;stroke-width:1;" x1="1119.6392" x2="1119.6392" y1="128.9063" y2="440.2344"/></g><g class="participant participant-head" data-participant="User"><text fill="#000000" font-family="Verdana" font-size="14" lengthAdjust="spacing" textLength="31.9102" x="10" y="125.6045">User</text><ellipse cx="28.9551" cy="60.6094" fill="#FFFFFF" rx="8" ry="8" style="stroke:#000000;stroke-width:1;"/><path d="M28.9551,68.6094 L28.9551,95.6094 M15.9551,76.6094 L41.9551,76.6094 M28.9551,95.6094 L15.9551,110.6094 M28.9551,95.6094 L41.9551,110.6094" fill="none" style="stroke:#000000;stroke-width:1;"/></g><g class="participant participant-tail" data-participant="User"><text fill="#000000" font-family="Verdana" font-size="14" lengthAdjust="spacing" textLength="31.9102" x="10" y="452.2295">User</text><ellipse cx="28.9551" cy="464.5313" fill="#FFFFFF" rx="8" ry="8" style="stroke:#000000;stroke-width:1;"/><path d="M28.9551,472.5313 L28.9551,499.5313 M15.9551,480.5313 L41.9551,480.5313 M28.9551,499.5313 L15.9551,514.5313 M28.9551,499.5313 L41.9551,514.5313" fill="none" style="stroke:#000000;stroke-width:1;"/></g><g class="participant participant-head" data-participant="UI"><rect fill="#FFFFFF" height="30.2969" rx="2.5" ry="2.5" style="stroke:#000000;stroke-width:1;" width="60.1768" x="263.062" y="97.6094"/><text fill="#000000" font-family="Verdana" font-size="14" lengthAdjust="spacing" textLength="46.1768" x="270.062" y="117.6045">App UI</text></g><g class="participant participant-tail" data-participant="UI"><rect fill="#FFFFFF" height="30.2969" rx="2.5" ry="2.5" style="stroke:#000000;stroke-width:1;" width="60.1768" x="263.062" y="439.2344"/><text fill="#000000" font-family="Verdana" font-size="14" lengthAdjust="spacing" textLength="46.1768" x="270.062" y="459.2295">App UI</text></g><g class="participant participant-head" data-participant="Service"><rect fill="#FFFFFF" height="30.2969" rx="2.5" ry="2.5" style="stroke:#000000;stroke-width:1;" width="157.9033" x="445.7861" y="97.6094"/><text fill="#000000" font-family="Verdana" font-size="14" lengthAdjust="spacing" textLength="143.9033" x="452.7861" y="117.6045">AchievementService</text></g><g class="participant participant-tail" data-participant="Service"><rect fill="#FFFFFF" height="30.2969" rx="2.5" ry="2.5" style="stroke:#000000;stroke-width:1;" width="157.9033" x="445.7861" y="439.2344"/><text fill="#000000" font-family="Verdana" font-size="14" lengthAdjust="spacing" textLength="143.9033" x="452.7861" y="459.2295">AchievementService</text></g><g class="participant participant-head" data-participant="Repo"><rect fill="#FFFFFF" height="30.2969" rx="2.5" ry="2.5" style="stroke:#000000;stroke-width:1;" width="120.9824" x="717.4224" y="97.6094"/><text fill="#000000" font-family="Verdana" font-size="14" lengthAdjust="spacing" textLength="106.9824" x="724.4224" y="117.6045">UserRepository</text></g><g class="participant participant-tail" data-participant="Repo"><rect fill="#FFFFFF" height="30.2969" rx="2.5" ry="2.5" style="stroke:#000000;stroke-width:1;" width="120.9824" x="717.4224" y="439.2344"/><text fill="#000000" font-family="Verdana" font-size="14" lengthAdjust="spacing" textLength="106.9824" x="724.4224" y="459.2295">UserRepository</text></g><g class="participant participant-head" data-participant="AchRepo"><rect fill="#FFFFFF" height="30.2969" rx="2.5" ry="2.5" style="stroke:#000000;stroke-width:1;" width="181.2344" x="868.4048" y="97.6094"/><text fill="#000000" font-family="Verdana" font-size="14" lengthAdjust="spacing" textLength="167.2344" x="875.4048" y="117.6045">AchievementRepository</text></g><g class="participant participant-tail" data-participant="AchRepo"><rect fill="#FFFFFF" height="30.2969" rx="2.5" ry="2.5" style="stroke:#000000;stroke-width:1;" width="181.2344" x="868.4048" y="439.2344"/><text fill="#000000" font-family="Verdana" font-size="14" lengthAdjust="spacing" textLength="167.2344" x="875.4048" y="459.2295">AchievementRepository</text></g><g class="participant participant-head" data-participant="Audit"><rect fill="#FFFFFF" height="30.2969" rx="2.5" ry="2.5" style="stroke:#000000;stroke-width:1;" width="81.3818" x="1079.6392" y="97.6094"/><text fill="#000000" font-family="Verdana" font-size="14" lengthAdjust="spacing" textLength="67.3818" x="1086.6392" y="117.6045">AuditTrail</text></g><g class="participant participant-tail" data-participant="Audit"><rect fill="#FFFFFF" height="30.2969" rx="2.5" ry="2.5" style="stroke:#000000;stroke-width:1;" width="81.3818" x="1079.6392" y="439.2344"/><text fill="#000000" font-family="Verdana" font-size="14" lengthAdjust="spacing" textLength="67.3818" x="1086.6392" y="459.2295">AuditTrail</text></g><g class="message" data-participant-1="User" data-participant-2="UI"><polygon fill="#000000" points="281.1504,156.0391,291.1504,160.0391,281.1504,164.0391,285.1504,160.0391" style="stroke:#000000;stroke-width:1;"/><line style="stroke:#000000;stroke-width:1;" x1="28.9551" x2="287.1504" y1="160.0391" y2="160.0391"/><text fill="#000000" font-family="Verdana" font-size="13" lengthAdjust="spacing" textLength="181.7588" x="35.9551" y="154.9731">Completes qualifying action</text></g><g class="message" data-participant-1="UI" data-participant-2="Service"><polygon fill="#000000" points="512.7378,185.1719,522.7378,189.1719,512.7378,193.1719,516.7378,189.1719" style="stroke:#000000;stroke-width:1;"/><line style="stroke:#000000;stroke-width:1;" x1="293.1504" x2="518.7378" y1="189.1719" y2="189.1719"/><text fill="#000000" font-family="Verdana" font-size="13" lengthAdjust="spacing" textLength="207.5874" x="300.1504" y="184.106">Notify achievement criteria met</text></g><g class="message" data-participant-1="Service" data-participant-2="AchRepo"><polygon fill="#000000" points="947.022,214.3047,957.022,218.3047,947.022,222.3047,951.022,218.3047" style="stroke:#000000;stroke-width:1;"/><line style="stroke:#000000;stroke-width:1;" x1="524.7378" x2="953.022" y1="218.3047" y2="218.3047"/><text fill="#000000" font-family="Verdana" font-size="13" lengthAdjust="spacing" textLength="219.9844" x="531.7378" y="213.2388">Query achievement requirements</text></g><g class="message" data-participant-1="AchRepo" data-participant-2="Service"><polygon fill="#000000" points="535.7378,243.4375,525.7378,247.4375,535.7378,251.4375,531.7378,247.4375" style="stroke:#000000;stroke-width:1;"/><line style="stroke:#000000;stroke-width:1;stroke-dasharray:2,2;" x1="529.7378" x2="958.022" y1="247.4375" y2="247.4375"/><text fill="#000000" font-family="Verdana" font-size="13" lengthAdjust="spacing" textLength="180.1782" x="541.7378" y="242.3716">Return achievement details</text></g><g class="message" data-participant-1="Service" data-participant-2="Repo"><polygon fill="#000000" points="765.9136,272.5703,775.9136,276.5703,765.9136,280.5703,769.9136,276.5703" style="stroke:#000000;stroke-width:1;"/><line style="stroke:#000000;stroke-width:1;" x1="524.7378" x2="771.9136" y1="276.5703" y2="276.5703"/><text fill="#000000" font-family="Verdana" font-size="13" lengthAdjust="spacing" textLength="229.1758" x="531.7378" y="271.5044">Update user achievement progress</text></g><g class="message" data-participant-1="Repo" data-participant-2="Service"><polygon fill="#000000" points="535.7378,301.7031,525.7378,305.7031,535.7378,309.7031,531.7378,305.7031" style="stroke:#000000;stroke-width:1;"/><line style="stroke:#000000;stroke-width:1;stroke-dasharray:2,2;" x1="529.7378" x2="776.9136" y1="305.7031" y2="305.7031"/><text fill="#000000" font-family="Verdana" font-size="13" lengthAdjust="spacing" textLength="162.2271" x="541.7378" y="300.6372">Confirm progress update</text></g><g class="message" data-participant-1="Service" data-participant-2="Audit"><polygon fill="#000000" points="1108.3301,330.8359,1118.3301,334.8359,1108.3301,338.8359,1112.3301,334.8359" style="stroke:#000000;stroke-width:1;"/><line style="stroke:#000000;stroke-width:1;" x1="524.7378" x2="1114.3301" y1="334.8359" y2="334.8359"/><text fill="#000000" font-family="Verdana" font-size="13" lengthAdjust="spacing" textLength="159.085" x="531.7378" y="329.77">Log achievement unlock</text></g><g class="message" data-participant-1="Service" data-participant-2="UI"><polygon fill="#000000" points="304.1504,359.9688,294.1504,363.9688,304.1504,367.9688,300.1504,363.9688" style="stroke:#000000;stroke-width:1;"/><line style="stroke:#000000;stroke-width:1;" x1="298.1504" x2="523.7378" y1="363.9688" y2="363.9688"/><text fill="#000000" font-family="Verdana" font-size="13" lengthAdjust="spacing" textLength="189.8394" x="310.1504" y="358.9028">Achievement unlocked event</text></g><g class="message" data-participant-1="UI" data-participant-2="User"><polygon fill="#000000" points="39.9551,389.1016,29.9551,393.1016,39.9551,397.1016,35.9551,393.1016" style="stroke:#000000;stroke-width:1;"/><line style="stroke:#000000;stroke-width:1;" x1="33.9551" x2="292.1504" y1="393.1016" y2="393.1016"/><text fill="#000000" font-family="Verdana" font-size="13" lengthAdjust="spacing" textLength="240.1953" x="45.9551" y="388.0356">Show achievement unlock animation</text></g><g class="message" data-participant-1="UI" data-participant-2="User"><polygon fill="#000000" points="39.9551,418.2344,29.9551,422.2344,39.9551,426.2344,35.9551,422.2344" style="stroke:#000000;stroke-width:1;"/><line style="stroke:#000000;stroke-width:1;" x1="33.9551" x2="292.1504" y1="422.2344" y2="422.2344"/><text fill="#000000" font-family="Verdana" font-size="13" lengthAdjust="spacing" textLength="219.2798" x="45.9551" y="417.1685">Award tokens, badge, celebration</text></g><!--SRC=[TPB1Ri8m38RlUGgFqoPHYI5DapXCgZXDGfE0zG52wnMBDWc90-BjvsPbKCPEJUBF_s__wWDliKLmZIQZ51Ct20jihLaUCJ3apa46URabF0Xd60hJs787Qzn7D2N2u-5v3DF9z2MRl3uffKks7eg0NZdjcKfoMhf6dL3nFW8Tv7DJkgYlqH-en8Jrvo7R2Q_GsK1YSqfST_rNy8QLoXqyLiIVNbFpmtHNfJedoDvaMfZ1tBQkGSO0-wWR-ZgHgK5M9MkK08BrqmhxOLa0gLuoApqnUjBG8gipAKtzEDAqZEY7FLu29f_EGPt1RE2qGexU3BegPDaZN9lq3eMhD2F4Rgth3kTjxJ44TSTWRiqN-VQNWPX41YjqQGcwiFL0DgRVv9fCGUP_4An07WptEQROPx3UskCTFT26MdqLUu_dH-qhOBj34yQmqLMDOoYnmOrFz3S0]--></g></svg>