<svg xmlns="http://www.w3.org/2000/svg" xmlns:xlink="http://www.w3.org/1999/xlink" contentStyleType="text/css" data-diagram-type="CLASS" height="994px" preserveAspectRatio="none" style="width:1729px;height:994px;background:#FFFFFF;" version="1.1" viewBox="0 0 1729 994" width="1729px" zoomAndPan="magnify"><title>LemonQwest App - Database Entity Relationship Diagram (v1, 2025-07)</title><defs/><g><g class="title" data-source-line="3"><text fill="#000000" font-family="Verdana" font-size="22" font-weight="bold" lengthAdjust="spacing" textLength="889.0449" x="415.6324" y="35.4209">LemonQwest App - Database Entity Relationship Diagram (v1, 2025-07)</text></g><!--class User--><g class="entity" data-entity="User" data-source-line="7" data-uid="ent0002" id="entity_User"><rect fill="#FFFFFF" height="369.6406" rx="2.5" ry="2.5" style="stroke:#000000;stroke-width:1;" width="324.4912" x="776.85" y="58.6094"/><ellipse cx="919.3905" cy="72.6094" fill="#FFFFFF" rx="9" ry="9" style="stroke:#000000;stroke-width:1;"/><path d="M923.4999,78.6094 L915.7812,78.6094 L915.7812,66.2188 L923.4999,66.2188 L923.4999,68.375 L918.2343,68.375 L918.2343,71.0469 L922.9999,71.0469 L922.9999,73.2031 L918.2343,73.2031 L918.2343,76.4531 L923.4999,76.4531 L923.4999,78.6094 Z " fill="#000000"/><text fill="#000000" font-family="Verdana" font-size="14" lengthAdjust="spacing" textLength="31.9102" x="936.8905" y="77.4561">User</text><line style="stroke:#000000;stroke-width:1;" x1="777.85" x2="1100.3412" y1="86.6094" y2="86.6094"/><ellipse cx="787.85" cy="100.2578" fill="#FFFFFF" rx="3" ry="3" style="stroke:#000000;stroke-width:1;"/><text fill="#000000" font-family="Verdana" font-size="14" lengthAdjust="spacing" textLength="158.1563" x="794.85" y="103.6045">id : String (UUID) &#171;PK&#187;</text><line style="stroke:#000000;stroke-width:1;" x1="777.85" x2="1100.3412" y1="110.9063" y2="110.9063"/><ellipse cx="787.85" cy="124.5547" fill="#FFFFFF" rx="3" ry="3" style="stroke:#000000;stroke-width:1;"/><text fill="#000000" font-family="Verdana" font-size="14" lengthAdjust="spacing" textLength="95.1016" x="794.85" y="127.9014">name : String</text><ellipse cx="787.85" cy="140.8516" fill="#FFFFFF" rx="3" ry="3" style="stroke:#000000;stroke-width:1;"/><text fill="#000000" font-family="Verdana" font-size="14" lengthAdjust="spacing" textLength="286.501" x="794.85" y="144.1982">role : String (CHILD, CAREGIVER, ADMIN)</text><ellipse cx="787.85" cy="157.1484" fill="#FFFFFF" rx="3" ry="3" style="stroke:#000000;stroke-width:1;"/><text fill="#000000" font-family="Verdana" font-size="14" lengthAdjust="spacing" textLength="127.5928" x="794.85" y="160.4951">tokenBalance : Int</text><ellipse cx="787.85" cy="173.4453" fill="#FFFFFF" rx="3" ry="3" style="stroke:#000000;stroke-width:1;"/><text fill="#000000" font-family="Verdana" font-size="14" lengthAdjust="spacing" textLength="148.1074" x="794.85" y="176.792">level : Int (default: 1)</text><ellipse cx="787.85" cy="189.7422" fill="#FFFFFF" rx="3" ry="3" style="stroke:#000000;stroke-width:1;"/><text fill="#000000" font-family="Verdana" font-size="14" lengthAdjust="spacing" textLength="235.2109" x="794.85" y="193.0889">experiencePoints : Int (default: 0)</text><line style="stroke:#000000;stroke-width:1;" x1="777.85" x2="1100.3412" y1="200.3906" y2="200.3906"/><text fill="#000000" font-family="Verdana" font-size="14" lengthAdjust="spacing" textLength="150.4385" x="782.85" y="217.3857">familyId : String &#171;FK&#187;</text><text fill="#000000" font-family="Verdana" font-size="14" lengthAdjust="spacing" textLength="239.8867" x="782.85" y="233.6826">pinHash : String (nullable, BCrypt)</text><text fill="#000000" font-family="Verdana" font-size="14" lengthAdjust="spacing" textLength="164.876" x="782.85" y="249.9795">email : String (nullable)</text><text fill="#000000" font-family="Verdana" font-size="14" lengthAdjust="spacing" textLength="129.0557" x="782.85" y="266.2764">age : Int (nullable)</text><text fill="#000000" font-family="Verdana" font-size="14" lengthAdjust="spacing" textLength="171.5342" x="782.85" y="282.5732">avatar : String (nullable)</text><text fill="#000000" font-family="Verdana" font-size="14" lengthAdjust="spacing" textLength="247.3994" x="782.85" y="298.8701">themePreference : String (nullable)</text><text fill="#000000" font-family="Verdana" font-size="14" lengthAdjust="spacing" textLength="312.4912" x="782.85" y="315.167">accessibilitySettings : String (nullable, JSON)</text><text fill="#000000" font-family="Verdana" font-size="14" lengthAdjust="spacing" textLength="267.3535" x="782.85" y="331.4639">languagePreference : String (nullable)</text><text fill="#000000" font-family="Verdana" font-size="14" lengthAdjust="spacing" textLength="286.2754" x="782.85" y="347.7607">privacyConsent : Boolean (default: false)</text><text fill="#000000" font-family="Verdana" font-size="14" lengthAdjust="spacing" textLength="277.5117" x="782.85" y="364.0576">coppaConsent : Boolean (default: false)</text><text fill="#000000" font-family="Verdana" font-size="14" lengthAdjust="spacing" textLength="196.9434" x="782.85" y="380.3545">lastLoginAt : Long (nullable)</text><text fill="#000000" font-family="Verdana" font-size="14" lengthAdjust="spacing" textLength="227.5752" x="782.85" y="396.6514">isActive : Boolean (default: true)</text><line style="stroke:#000000;stroke-width:1;" x1="777.85" x2="1100.3412" y1="403.9531" y2="403.9531"/><ellipse cx="787.85" cy="417.6016" fill="#FFFFFF" rx="3" ry="3" style="stroke:#000000;stroke-width:1;"/><text fill="#000000" font-family="Verdana" font-size="14" lengthAdjust="spacing" textLength="207.334" x="794.85" y="420.9482">createdAt : Long (timestamp)</text></g><!--class Family--><g class="entity" data-entity="Family" data-source-line="32" data-uid="ent0003" id="entity_Family"><rect fill="#FFFFFF" height="166.0781" rx="2.5" ry="2.5" style="stroke:#000000;stroke-width:1;" width="387.9043" x="1290.14" y="160.3894"/><ellipse cx="1457.1752" cy="174.3894" fill="#FFFFFF" rx="9" ry="9" style="stroke:#000000;stroke-width:1;"/><path d="M1461.2845,180.3894 L1453.5658,180.3894 L1453.5658,167.9987 L1461.2845,167.9987 L1461.2845,170.155 L1456.0189,170.155 L1456.0189,172.8269 L1460.7845,172.8269 L1460.7845,174.9831 L1456.0189,174.9831 L1456.0189,178.2331 L1461.2845,178.2331 L1461.2845,180.3894 Z " fill="#000000"/><text fill="#000000" font-family="Verdana" font-size="14" lengthAdjust="spacing" textLength="46.334" x="1474.6752" y="179.2361">Family</text><line style="stroke:#000000;stroke-width:1;" x1="1291.14" x2="1677.0443" y1="188.3894" y2="188.3894"/><ellipse cx="1301.14" cy="202.0378" fill="#FFFFFF" rx="3" ry="3" style="stroke:#000000;stroke-width:1;"/><text fill="#000000" font-family="Verdana" font-size="14" lengthAdjust="spacing" textLength="158.1563" x="1308.14" y="205.3845">id : String (UUID) &#171;PK&#187;</text><line style="stroke:#000000;stroke-width:1;" x1="1291.14" x2="1677.0443" y1="212.6862" y2="212.6862"/><ellipse cx="1301.14" cy="226.3347" fill="#FFFFFF" rx="3" ry="3" style="stroke:#000000;stroke-width:1;"/><text fill="#000000" font-family="Verdana" font-size="14" lengthAdjust="spacing" textLength="95.1016" x="1308.14" y="229.6814">name : String</text><ellipse cx="1301.14" cy="242.6316" fill="#FFFFFF" rx="3" ry="3" style="stroke:#000000;stroke-width:1;"/><text fill="#000000" font-family="Verdana" font-size="14" lengthAdjust="spacing" textLength="183.0049" x="1308.14" y="245.9782">adminUserId : String &#171;FK&#187;</text><text fill="#000000" font-family="Verdana" font-size="14" lengthAdjust="spacing" textLength="311.3906" x="1308.14" y="262.2751">settings : String (JSON, family-wide settings)</text><text fill="#000000" font-family="Verdana" font-size="14" lengthAdjust="spacing" textLength="363.9043" x="1308.14" y="278.572">parentalControls : String (JSON, COPPA/child safety)</text><line style="stroke:#000000;stroke-width:1;" x1="1291.14" x2="1677.0443" y1="285.8738" y2="285.8738"/><ellipse cx="1301.14" cy="299.5222" fill="#FFFFFF" rx="3" ry="3" style="stroke:#000000;stroke-width:1;"/><text fill="#000000" font-family="Verdana" font-size="14" lengthAdjust="spacing" textLength="207.334" x="1308.14" y="302.8689">createdAt : Long (timestamp)</text><ellipse cx="1301.14" cy="315.8191" fill="#FFFFFF" rx="3" ry="3" style="stroke:#000000;stroke-width:1;"/><text fill="#000000" font-family="Verdana" font-size="14" lengthAdjust="spacing" textLength="211.9141" x="1308.14" y="319.1657">updatedAt : Long (timestamp)</text></g><!--class FamilyMembership--><g class="entity" data-entity="FamilyMembership" data-source-line="44" data-uid="ent0004" id="entity_FamilyMembership"><rect fill="#FFFFFF" height="166.0781" rx="2.5" ry="2.5" style="stroke:#000000;stroke-width:1;" width="476.4297" x="1245.88" y="541.8394"/><ellipse cx="1413.9132" cy="555.8394" fill="#FFFFFF" rx="9" ry="9" style="stroke:#000000;stroke-width:1;"/><path d="M1418.0226,561.8394 L1410.3038,561.8394 L1410.3038,549.4488 L1418.0226,549.4488 L1418.0226,551.605 L1412.757,551.605 L1412.757,554.2769 L1417.5226,554.2769 L1417.5226,556.4331 L1412.757,556.4331 L1412.757,559.6831 L1418.0226,559.6831 L1418.0226,561.8394 Z " fill="#000000"/><text fill="#000000" font-family="Verdana" font-size="14" lengthAdjust="spacing" textLength="132.8633" x="1431.4132" y="560.6861">FamilyMembership</text><line style="stroke:#000000;stroke-width:1;" x1="1246.88" x2="1721.3097" y1="569.8394" y2="569.8394"/><ellipse cx="1256.88" cy="583.4878" fill="#FFFFFF" rx="3" ry="3" style="stroke:#000000;stroke-width:1;"/><text fill="#000000" font-family="Verdana" font-size="14" lengthAdjust="spacing" textLength="158.1563" x="1263.88" y="586.8345">id : String (UUID) &#171;PK&#187;</text><line style="stroke:#000000;stroke-width:1;" x1="1246.88" x2="1721.3097" y1="594.1363" y2="594.1363"/><ellipse cx="1256.88" cy="607.7847" fill="#FFFFFF" rx="3" ry="3" style="stroke:#000000;stroke-width:1;"/><text fill="#000000" font-family="Verdana" font-size="14" lengthAdjust="spacing" textLength="150.4385" x="1263.88" y="611.1314">familyId : String &#171;FK&#187;</text><ellipse cx="1256.88" cy="624.0816" fill="#FFFFFF" rx="3" ry="3" style="stroke:#000000;stroke-width:1;"/><text fill="#000000" font-family="Verdana" font-size="14" lengthAdjust="spacing" textLength="137.7646" x="1263.88" y="627.4282">userId : String &#171;FK&#187;</text><ellipse cx="1256.88" cy="640.3784" fill="#FFFFFF" rx="3" ry="3" style="stroke:#000000;stroke-width:1;"/><text fill="#000000" font-family="Verdana" font-size="14" lengthAdjust="spacing" textLength="261.0645" x="1263.88" y="643.7251">role : String (ADMIN, PARENT, CHILD)</text><text fill="#000000" font-family="Verdana" font-size="14" lengthAdjust="spacing" textLength="339.5137" x="1263.88" y="660.022">permissions : String (JSON, specific permissions)</text><text fill="#000000" font-family="Verdana" font-size="14" lengthAdjust="spacing" textLength="452.4297" x="1263.88" y="676.3189">childAccessRights : String (JSON, children this user can manage)</text><line style="stroke:#000000;stroke-width:1;" x1="1246.88" x2="1721.3097" y1="683.6206" y2="683.6206"/><ellipse cx="1256.88" cy="697.2691" fill="#FFFFFF" rx="3" ry="3" style="stroke:#000000;stroke-width:1;"/><text fill="#000000" font-family="Verdana" font-size="14" lengthAdjust="spacing" textLength="196.417" x="1263.88" y="700.6157">joinedAt : Long (timestamp)</text></g><!--class Task--><g class="entity" data-entity="Task" data-source-line="56" data-uid="ent0005" id="entity_Task"><rect fill="#FFFFFF" height="239.2656" rx="2.5" ry="2.5" style="stroke:#000000;stroke-width:1;" width="736.1816" x="12" y="505.2494"/><ellipse cx="360.0747" cy="519.2494" fill="#FFFFFF" rx="9" ry="9" style="stroke:#000000;stroke-width:1;"/><path d="M364.1841,525.2494 L356.4653,525.2494 L356.4653,512.8588 L364.1841,512.8588 L364.1841,515.015 L358.9185,515.015 L358.9185,517.6869 L363.6841,517.6869 L363.6841,519.8431 L358.9185,519.8431 L358.9185,523.0931 L364.1841,523.0931 L364.1841,525.2494 Z " fill="#000000"/><text fill="#000000" font-family="Verdana" font-size="14" lengthAdjust="spacing" textLength="32.5322" x="377.5747" y="524.0961">Task</text><line style="stroke:#000000;stroke-width:1;" x1="13" x2="747.1816" y1="533.2494" y2="533.2494"/><ellipse cx="23" cy="546.8978" fill="#FFFFFF" rx="3" ry="3" style="stroke:#000000;stroke-width:1;"/><text fill="#000000" font-family="Verdana" font-size="14" lengthAdjust="spacing" textLength="158.1563" x="30" y="550.2445">id : String (UUID) &#171;PK&#187;</text><line style="stroke:#000000;stroke-width:1;" x1="13" x2="747.1816" y1="557.5463" y2="557.5463"/><ellipse cx="23" cy="571.1947" fill="#FFFFFF" rx="3" ry="3" style="stroke:#000000;stroke-width:1;"/><text fill="#000000" font-family="Verdana" font-size="14" lengthAdjust="spacing" textLength="82.7695" x="30" y="574.5414">title : String</text><ellipse cx="23" cy="587.4916" fill="#FFFFFF" rx="3" ry="3" style="stroke:#000000;stroke-width:1;"/><text fill="#000000" font-family="Verdana" font-size="14" lengthAdjust="spacing" textLength="712.1816" x="30" y="590.8382">category : String (PersonalCare, HouseholdChores, Homework, SocialSkills, Exercise, Creative, Other)</text><ellipse cx="23" cy="603.7884" fill="#FFFFFF" rx="3" ry="3" style="stroke:#000000;stroke-width:1;"/><text fill="#000000" font-family="Verdana" font-size="14" lengthAdjust="spacing" textLength="346.8691" x="30" y="607.1351">difficulty : String (EASY, MEDIUM, HARD, EXPERT)</text><ellipse cx="23" cy="620.0853" fill="#FFFFFF" rx="3" ry="3" style="stroke:#000000;stroke-width:1;"/><text fill="#000000" font-family="Verdana" font-size="14" lengthAdjust="spacing" textLength="346.1445" x="30" y="623.432">tokenReward : Int (calculated based on difficulty)</text><text fill="#000000" font-family="Verdana" font-size="14" lengthAdjust="spacing" textLength="258.2002" x="30" y="639.7289">privacyFlag : Boolean (default: false)</text><line style="stroke:#000000;stroke-width:1;" x1="13" x2="747.1816" y1="647.0306" y2="647.0306"/><text fill="#000000" font-family="Verdana" font-size="14" lengthAdjust="spacing" textLength="218.5723" x="18" y="664.0257">assignedToUserId : String &#171;FK&#187;</text><text fill="#000000" font-family="Verdana" font-size="14" lengthAdjust="spacing" textLength="231.3076" x="18" y="680.3226">completedByUserId : String &#171;FK&#187;</text><text fill="#000000" font-family="Verdana" font-size="14" lengthAdjust="spacing" textLength="207.9561" x="18" y="696.6195">completedAt : Long (nullable)</text><text fill="#000000" font-family="Verdana" font-size="14" lengthAdjust="spacing" textLength="227.5752" x="18" y="712.9164">isActive : Boolean (default: true)</text><line style="stroke:#000000;stroke-width:1;" x1="13" x2="747.1816" y1="720.2181" y2="720.2181"/><ellipse cx="23" cy="733.8666" fill="#FFFFFF" rx="3" ry="3" style="stroke:#000000;stroke-width:1;"/><text fill="#000000" font-family="Verdana" font-size="14" lengthAdjust="spacing" textLength="207.334" x="30" y="737.2132">createdAt : Long (timestamp)</text></g><!--class Reward--><g class="entity" data-entity="Reward" data-source-line="73" data-uid="ent0006" id="entity_Reward"><rect fill="#FFFFFF" height="166.0781" rx="2.5" ry="2.5" style="stroke:#000000;stroke-width:1;" width="403.5244" x="397.33" y="821.5094"/><ellipse cx="568.8359" cy="835.5094" fill="#FFFFFF" rx="9" ry="9" style="stroke:#000000;stroke-width:1;"/><path d="M572.9452,841.5094 L565.2265,841.5094 L565.2265,829.1188 L572.9452,829.1188 L572.9452,831.275 L567.6796,831.275 L567.6796,833.9469 L572.4452,833.9469 L572.4452,836.1031 L567.6796,836.1031 L567.6796,839.3531 L572.9452,839.3531 L572.9452,841.5094 Z " fill="#000000"/><text fill="#000000" font-family="Verdana" font-size="14" lengthAdjust="spacing" textLength="53.0127" x="586.3359" y="840.3561">Reward</text><line style="stroke:#000000;stroke-width:1;" x1="398.33" x2="799.8544" y1="849.5094" y2="849.5094"/><ellipse cx="408.33" cy="863.1578" fill="#FFFFFF" rx="3" ry="3" style="stroke:#000000;stroke-width:1;"/><text fill="#000000" font-family="Verdana" font-size="14" lengthAdjust="spacing" textLength="158.1563" x="415.33" y="866.5045">id : String (UUID) &#171;PK&#187;</text><line style="stroke:#000000;stroke-width:1;" x1="398.33" x2="799.8544" y1="873.8063" y2="873.8063"/><ellipse cx="408.33" cy="887.4547" fill="#FFFFFF" rx="3" ry="3" style="stroke:#000000;stroke-width:1;"/><text fill="#000000" font-family="Verdana" font-size="14" lengthAdjust="spacing" textLength="95.1016" x="415.33" y="890.8014">name : String</text><ellipse cx="408.33" cy="903.7516" fill="#FFFFFF" rx="3" ry="3" style="stroke:#000000;stroke-width:1;"/><text fill="#000000" font-family="Verdana" font-size="14" lengthAdjust="spacing" textLength="61.1543" x="415.33" y="907.0982">cost : Int</text><ellipse cx="408.33" cy="920.0484" fill="#FFFFFF" rx="3" ry="3" style="stroke:#000000;stroke-width:1;"/><text fill="#000000" font-family="Verdana" font-size="14" lengthAdjust="spacing" textLength="379.5244" x="415.33" y="923.3951">category : String (Physical, Digital, Experience, Other)</text><ellipse cx="408.33" cy="936.3453" fill="#FFFFFF" rx="3" ry="3" style="stroke:#000000;stroke-width:1;"/><text fill="#000000" font-family="Verdana" font-size="14" lengthAdjust="spacing" textLength="227.5752" x="415.33" y="939.692">isActive : Boolean (default: true)</text><text fill="#000000" font-family="Verdana" font-size="14" lengthAdjust="spacing" textLength="314.3779" x="415.33" y="955.9889">auditTrail : String (JSON, redemption history)</text><line style="stroke:#000000;stroke-width:1;" x1="398.33" x2="799.8544" y1="963.2906" y2="963.2906"/><ellipse cx="408.33" cy="976.9391" fill="#FFFFFF" rx="3" ry="3" style="stroke:#000000;stroke-width:1;"/><text fill="#000000" font-family="Verdana" font-size="14" lengthAdjust="spacing" textLength="207.334" x="415.33" y="980.2857">createdAt : Long (timestamp)</text></g><!--class Achievement--><g class="entity" data-entity="Achievement" data-source-line="85" data-uid="ent0007" id="entity_Achievement"><rect fill="#FFFFFF" height="158.0781" rx="2.5" ry="2.5" style="stroke:#000000;stroke-width:1;" width="303.1729" x="907.5" y="545.8394"/><ellipse cx="1009.2554" cy="559.8394" fill="#FFFFFF" rx="9" ry="9" style="stroke:#000000;stroke-width:1;"/><path d="M1013.3647,565.8394 L1005.646,565.8394 L1005.646,553.4488 L1013.3647,553.4488 L1013.3647,555.605 L1008.0991,555.605 L1008.0991,558.2769 L1012.8647,558.2769 L1012.8647,560.4331 L1008.0991,560.4331 L1008.0991,563.6831 L1013.3647,563.6831 L1013.3647,565.8394 Z " fill="#000000"/><text fill="#000000" font-family="Verdana" font-size="14" lengthAdjust="spacing" textLength="92.1621" x="1026.7554" y="564.6861">Achievement</text><line style="stroke:#000000;stroke-width:1;" x1="908.5" x2="1209.6729" y1="573.8394" y2="573.8394"/><ellipse cx="918.5" cy="587.4878" fill="#FFFFFF" rx="3" ry="3" style="stroke:#000000;stroke-width:1;"/><text fill="#000000" font-family="Verdana" font-size="14" lengthAdjust="spacing" textLength="158.1563" x="925.5" y="590.8345">id : String (UUID) &#171;PK&#187;</text><line style="stroke:#000000;stroke-width:1;" x1="908.5" x2="1209.6729" y1="598.1363" y2="598.1363"/><ellipse cx="918.5" cy="611.7847" fill="#FFFFFF" rx="3" ry="3" style="stroke:#000000;stroke-width:1;"/><text fill="#000000" font-family="Verdana" font-size="14" lengthAdjust="spacing" textLength="95.1016" x="925.5" y="615.1314">name : String</text><ellipse cx="918.5" cy="628.0816" fill="#FFFFFF" rx="3" ry="3" style="stroke:#000000;stroke-width:1;"/><text fill="#000000" font-family="Verdana" font-size="14" lengthAdjust="spacing" textLength="133.2393" x="925.5" y="631.4282">description : String</text><ellipse cx="918.5" cy="644.3784" fill="#FFFFFF" rx="3" ry="3" style="stroke:#000000;stroke-width:1;"/><text fill="#000000" font-family="Verdana" font-size="14" lengthAdjust="spacing" textLength="220.5342" x="925.5" y="647.7251">unlockedByUserId : String &#171;FK&#187;</text><ellipse cx="918.5" cy="660.6753" fill="#FFFFFF" rx="3" ry="3" style="stroke:#000000;stroke-width:1;"/><text fill="#000000" font-family="Verdana" font-size="14" lengthAdjust="spacing" textLength="217.2051" x="925.5" y="664.022">unlockedAt : Long (timestamp)</text><ellipse cx="918.5" cy="676.9722" fill="#FFFFFF" rx="3" ry="3" style="stroke:#000000;stroke-width:1;"/><text fill="#000000" font-family="Verdana" font-size="14" lengthAdjust="spacing" textLength="116.0059" x="925.5" y="680.3189">tokenAward : Int</text><text fill="#000000" font-family="Verdana" font-size="14" lengthAdjust="spacing" textLength="279.1729" x="925.5" y="696.6157">auditTrail : String (JSON, unlock history)</text></g><!--link User to FamilyMembership--><g class="link" data-entity-1="User" data-entity-2="FamilyMembership" data-source-line="96" data-uid="lnk8" id="link_User_FamilyMembership"><path codeLine="96" d="M1108.0652,362.0709 C1192.9252,421.1609 1273.5678,477.3044 1350.8978,531.1444" fill="none" id="User-FamilyMembership" style="stroke:#000000;stroke-width:1;"/><line style="stroke:#000000;stroke-width:1;" x1="1102.4968" x2="1107.0683" y1="363.0677" y2="356.5025"/><line style="stroke:#000000;stroke-width:1;" x1="1104.9588" x2="1109.5303" y1="364.782" y2="358.2168"/><line style="stroke:#000000;stroke-width:1;" x1="1108.0652" x2="1101.5" y1="362.0709" y2="357.4994"/><line style="stroke:#000000;stroke-width:1;" x1="1359.1046" x2="1369.0983" y1="536.8583" y2="536.5053"/><line style="stroke:#000000;stroke-width:1;" x1="1359.1046" x2="1362.2417" y1="536.8583" y2="546.3535"/><line style="stroke:#000000;stroke-width:1;" x1="1359.1046" x2="1365.67" y1="536.8583" y2="541.4294"/><ellipse cx="1354.1805" cy="533.4299" fill="none" rx="4" ry="4" style="stroke:#000000;stroke-width:1;"/><text fill="#000000" font-family="Verdana" font-size="13" lengthAdjust="spacing" textLength="88.5688" x="1261.41" y="471.3163">memberships</text></g><!--link Family to FamilyMembership--><g class="link" data-entity-1="Family" data-entity-2="FamilyMembership" data-source-line="97" data-uid="lnk9" id="link_Family_FamilyMembership"><path codeLine="97" d="M1484.09,334.7594 C1484.09,398.2994 1484.09,459.7994 1484.09,523.3794" fill="none" id="Family-FamilyMembership" style="stroke:#000000;stroke-width:1;"/><line style="stroke:#000000;stroke-width:1;" x1="1480.09" x2="1488.09" y1="330.7594" y2="330.7594"/><line style="stroke:#000000;stroke-width:1;" x1="1480.09" x2="1488.09" y1="333.7594" y2="333.7594"/><line style="stroke:#000000;stroke-width:1;" x1="1484.09" x2="1484.09" y1="334.7594" y2="326.7594"/><line style="stroke:#000000;stroke-width:1;" x1="1484.09" x2="1490.09" y1="533.3794" y2="541.3794"/><line style="stroke:#000000;stroke-width:1;" x1="1484.09" x2="1478.09" y1="533.3794" y2="541.3794"/><line style="stroke:#000000;stroke-width:1;" x1="1484.09" x2="1484.09" y1="533.3794" y2="541.3794"/><ellipse cx="1484.09" cy="527.3794" fill="none" rx="4" ry="4" style="stroke:#000000;stroke-width:1;"/><text fill="#000000" font-family="Verdana" font-size="13" lengthAdjust="spacing" textLength="61.6929" x="1485.09" y="471.3163">members</text></g><!--link User to Task--><g class="link" data-entity-1="User" data-entity-2="Task" data-source-line="98" data-uid="lnk10" id="link_User_Task"><path codeLine="98" d="M770.0309,359.1825 C700.5709,406.3325 640.8329,446.8799 570.0329,494.9399" fill="none" id="User-Task" style="stroke:#000000;stroke-width:1;"/><line style="stroke:#000000;stroke-width:1;" x1="771.0939" x2="775.587" y1="353.6264" y2="360.2455"/><line style="stroke:#000000;stroke-width:1;" x1="768.6118" x2="773.1048" y1="355.3113" y2="361.9304"/><line style="stroke:#000000;stroke-width:1;" x1="770.0309" x2="776.65" y1="359.1825" y2="354.6894"/><line style="stroke:#000000;stroke-width:1;" x1="561.7591" x2="558.5098" y1="500.5563" y2="510.0137"/><line style="stroke:#000000;stroke-width:1;" x1="561.7591" x2="551.7702" y1="500.5563" y2="500.0851"/><line style="stroke:#000000;stroke-width:1;" x1="561.7591" x2="555.14" y1="500.5563" y2="505.0494"/><ellipse cx="566.7234" cy="497.1864" fill="none" rx="4" ry="4" style="stroke:#000000;stroke-width:1;"/><text fill="#000000" font-family="Verdana" font-size="13" lengthAdjust="spacing" textLength="34.1377" x="610.52" y="471.3163">tasks</text></g><!--link User to Reward--><g class="link" data-entity-1="User" data-entity-2="Reward" data-source-line="99" data-uid="lnk11" id="link_User_Reward"><path codeLine="99" d="M861.1265,435.997 C851.3765,461.637 844.66,480.2594 836.09,505.2494 C800.15,610.0494 823.74,649.8894 766.09,744.5094 C749.22,772.2094 739.2221,785.7687 715.7821,808.4987" fill="none" id="User-Reward" style="stroke:#000000;stroke-width:1;"/><line style="stroke:#000000;stroke-width:1;" x1="858.8095" x2="866.2871" y1="430.8364" y2="433.6799"/><line style="stroke:#000000;stroke-width:1;" x1="857.7432" x2="865.2208" y1="433.6405" y2="436.484"/><line style="stroke:#000000;stroke-width:1;" x1="861.1265" x2="863.97" y1="435.997" y2="428.5194"/><line style="stroke:#000000;stroke-width:1;" x1="708.6032" x2="707.0369" y1="815.4602" y2="825.3367"/><line style="stroke:#000000;stroke-width:1;" x1="708.6032" x2="698.6831" y1="815.4602" y2="816.722"/><line style="stroke:#000000;stroke-width:1;" x1="708.6032" x2="702.86" y1="815.4602" y2="821.0294"/><ellipse cx="712.9105" cy="811.2833" fill="none" rx="4" ry="4" style="stroke:#000000;stroke-width:1;"/><text fill="#000000" font-family="Verdana" font-size="13" lengthAdjust="spacing" textLength="52.311" x="837.09" y="629.4463">rewards</text></g><!--link User to Achievement--><g class="link" data-entity-1="User" data-entity-2="Achievement" data-source-line="100" data-uid="lnk12" id="link_User_Achievement"><path codeLine="100" d="M999.7422,436.217 C1012.7622,477.387 1018.0543,494.1066 1028.8343,528.2066" fill="none" id="User-Achievement" style="stroke:#000000;stroke-width:1;"/><line style="stroke:#000000;stroke-width:1;" x1="994.7223" x2="1002.3499" y1="433.6093" y2="431.1971"/><line style="stroke:#000000;stroke-width:1;" x1="995.6269" x2="1003.2545" y1="436.4697" y2="434.0574"/><line style="stroke:#000000;stroke-width:1;" x1="999.7422" x2="997.33" y1="436.217" y2="428.5894"/><line style="stroke:#000000;stroke-width:1;" x1="1031.8486" x2="1039.9809" y1="537.7415" y2="543.5608"/><line style="stroke:#000000;stroke-width:1;" x1="1031.8486" x2="1028.5391" y1="537.7415" y2="547.1779"/><line style="stroke:#000000;stroke-width:1;" x1="1031.8486" x2="1034.26" y1="537.7415" y2="545.3694"/><ellipse cx="1030.04" cy="532.0205" fill="none" rx="4" ry="4" style="stroke:#000000;stroke-width:1;"/><text fill="#000000" font-family="Verdana" font-size="13" lengthAdjust="spacing" textLength="91.4253" x="1010.84" y="471.3163">achievements</text></g><!--link Task to Reward--><g class="link" data-entity-1="Task" data-entity-2="Reward" data-source-line="101" data-uid="lnk13" id="link_Task_Reward"><path codeLine="101" d="M478.8758,751.1295 C499.1958,776.8795 504.1414,783.1676 523.0514,807.1376" fill="none" id="Task-Reward" style="stroke:#000000;stroke-width:1;"/><line style="stroke:#000000;stroke-width:1;" x1="473.2578" x2="479.538" y1="750.4673" y2="745.5115"/><line style="stroke:#000000;stroke-width:1;" x1="475.1163" x2="481.3964" y1="752.8224" y2="747.8666"/><line style="stroke:#000000;stroke-width:1;" x1="478.8758" x2="473.92" y1="751.1295" y2="744.8494"/><line style="stroke:#000000;stroke-width:1;" x1="529.2451" x2="538.9106" y1="814.9886" y2="817.5532"/><line style="stroke:#000000;stroke-width:1;" x1="529.2451" x2="529.4894" y1="814.9886" y2="824.9856"/><line style="stroke:#000000;stroke-width:1;" x1="529.2451" x2="534.2" y1="814.9886" y2="821.2694"/><ellipse cx="525.5288" cy="810.278" fill="none" rx="4" ry="4" style="stroke:#000000;stroke-width:1;"/><text fill="#000000" font-family="Verdana" font-size="13" lengthAdjust="spacing" textLength="103.2954" x="510.21" y="787.5763">rewardsForTask</text></g><!--SRC=[lLRVRnev47xVlyBbAPmMNLhfT58KLTh0fg6N7noGgdsSU8TbYjTUsOO4jVtVRzQRm18WuHIfJs3xc_7ucszczfsVOe6YL40wYZnvXU8I2wF_lKVdHLAMeYDwuE4E78fKCs8fXgZ0az5kIgNe4UGM2d6qU1-B3ySV_keS_zsEedSPJaYpoVMuF_ucC5X6qUForg4LFo8X_X2KYHCnyfPqBevkR_kzjZWz7VppyIEVTZe1ee53V0A57MiKDiow5_tBNYowoJ3zrF-I3cEHzAxwr-s0zMQ6-WmKQ5dPzBKFsmeNgEgrEE9WOQxyYNXVs-13YPQGBGQ6j7TRkEFsKtWJA4Wj-urNd9wUr-6Nf2_0JHk1whbISASm5cTTkonzvGKB8BK3Kvr1ZazNRsmlE2DsZqt8wC3Y12tMJzxfMKfqZkv8SLv6w3qZtCv8Fuzk0fDCO3xdW5vrNLfQW5nsMI2STWQT6KuNw0Pz4r0kOAKfIpW8gS3vIvEJJYhWfNb-Axb4UbhWJY_Uph6z5fIq21wpXYTF1UiTYh8T_Lgfz3oazYqwXQmWNObzfpxSDkqLsV6ZfZhtbE4A59W5vjs3Oi8yby2sOVTcC4Z-b5DIcN0mGRyyzDKLO5vcXzDoXSKTsj023YReXLhXs_VHj5NkeRXZCU1olnxpewlg3_IWBOX5pNBQOiQLA6b2iWaA0gouIa8n32cV-ctBW63UkR38XIY5P74LeBaO6lH-vqxnEdbZSBF32QiRyeQa9ASeDtRPi1rm7encMR0yOd5XECQfKLbtQYowQgF0UsDdiHWPIQ16CrAAzzC7j98SctGhPN3jnEA6kuUjrP3HXFdYycbUbIQZRx6uIdlzsolsd0ovxQPV1-bmt6YsGxm7cpqrBWcAlLJ24jKGoOJH3T-DXd6k87-v1mHMW9ENCzDZixUmf2bAXNpZsV9rpE_h9u-ylA6VIEDyOuRjqi9qwOWfZtamv-IhF-bgc6tazw07mZmZFxQR4wgk2uiP5cNr7I2uC3o7yVyPIRYuU0uNLVT_0oqPEccfZcNZOAwLaRCNTR06xM-CGTN9MjGl4rFxMvF2pmtVEpz_TZhcntRxF16jOhLohUXnxBmERstu3Ps53pt_FZjQ5MJBXd_FZfjPO0oibmmCRlVvEJUsEcz5_m40]--></g></svg>