<svg xmlns="http://www.w3.org/2000/svg" xmlns:xlink="http://www.w3.org/1999/xlink" contentStyleType="text/css" data-diagram-type="DESCRIPTION" height="431px" preserveAspectRatio="none" style="width:867px;height:431px;background:#FFFFFF;" version="1.1" viewBox="0 0 867 431" width="867px" zoomAndPan="magnify"><title>Arthur's Life App - i18n/l10n Architecture (v1, 2025-07)</title><defs/><g><g class="title" data-source-line="3"><text fill="#000000" font-family="Verdana" font-size="22" font-weight="bold" lengthAdjust="spacing" textLength="687.0273" x="85.4863" y="35.4209">Arthur's Life App - i18n/l10n Architecture (v1, 2025-07)</text></g><!--cluster App UI--><g class="cluster" data-entity="App UI" data-source-line="5" data-uid="ent0002" id="cluster_App UI"><path d="M13.5,57.6094 L66.8291,57.6094 A3.75,3.75 0 0 1 69.3291,60.1094 L76.3291,79.9063 L548.5,79.9063 A2.5,2.5 0 0 1 551,82.4063 L551,152.4094 A2.5,2.5 0 0 1 548.5,154.9094 L13.5,154.9094 A2.5,2.5 0 0 1 11,152.4094 L11,60.1094 A2.5,2.5 0 0 1 13.5,57.6094" fill="#FFFFFF" style="stroke:#000000;stroke-width:1;"/><line style="stroke:#000000;stroke-width:1;" x1="11" x2="76.3291" y1="79.9063" y2="79.9063"/><text fill="#000000" font-family="Verdana" font-size="14" font-weight="bold" lengthAdjust="spacing" textLength="52.3291" x="15" y="72.6045">App UI</text></g><!--cluster Localization Engine--><g class="cluster" data-entity="Localization Engine" data-source-line="11" data-uid="ent0006" id="cluster_Localization Engine"><path d="M218.5,203.9094 L372.7412,203.9094 A3.75,3.75 0 0 1 375.2412,206.4094 L382.2412,226.2062 L415.5,226.2062 A2.5,2.5 0 0 1 418,228.7062 L418,421.9994 A2.5,2.5 0 0 1 415.5,424.4994 L218.5,424.4994 A2.5,2.5 0 0 1 216,421.9994 L216,206.4094 A2.5,2.5 0 0 1 218.5,203.9094" fill="#FFFFFF" style="stroke:#000000;stroke-width:1;"/><line style="stroke:#000000;stroke-width:1;" x1="216" x2="382.2412" y1="226.2062" y2="226.2062"/><text fill="#000000" font-family="Verdana" font-size="14" font-weight="bold" lengthAdjust="spacing" textLength="153.2412" x="220" y="218.9045">Localization Engine</text></g><!--cluster Data Layer--><g class="cluster" data-entity="Data Layer" data-source-line="16" data-uid="ent0009" id="cluster_Data Layer"><path d="M674.5,203.9094 L761.4756,203.9094 A3.75,3.75 0 0 1 763.9756,206.4094 L770.9756,226.2062 L857.5,226.2062 A2.5,2.5 0 0 1 860,228.7062 L860,421.9994 A2.5,2.5 0 0 1 857.5,424.4994 L674.5,424.4994 A2.5,2.5 0 0 1 672,421.9994 L672,206.4094 A2.5,2.5 0 0 1 674.5,203.9094" fill="#FFFFFF" style="stroke:#000000;stroke-width:1;"/><line style="stroke:#000000;stroke-width:1;" x1="672" x2="770.9756" y1="226.2062" y2="226.2062"/><text fill="#000000" font-family="Verdana" font-size="14" font-weight="bold" lengthAdjust="spacing" textLength="85.9756" x="676" y="218.9045">Data Layer</text></g><!--entity MainScreen--><g class="entity" data-entity="MainScreen" data-source-line="6" data-uid="ent0003" id="entity_MainScreen"><rect fill="#FFFFFF" height="46.2969" rx="2.5" ry="2.5" style="stroke:#000000;stroke-width:1;" width="121.8604" x="27.07" y="92.6094"/><rect fill="#FFFFFF" height="10" style="stroke:#000000;stroke-width:1;" width="15" x="128.9304" y="97.6094"/><rect fill="#FFFFFF" height="2" style="stroke:#000000;stroke-width:1;" width="4" x="126.9304" y="99.6094"/><rect fill="#FFFFFF" height="2" style="stroke:#000000;stroke-width:1;" width="4" x="126.9304" y="103.6094"/><text fill="#000000" font-family="Verdana" font-size="14" lengthAdjust="spacing" textLength="81.8604" x="42.07" y="125.6045">MainScreen</text></g><!--entity SettingsScreen--><g class="entity" data-entity="SettingsScreen" data-source-line="7" data-uid="ent0004" id="entity_SettingsScreen"><rect fill="#FFFFFF" height="46.2969" rx="2.5" ry="2.5" style="stroke:#000000;stroke-width:1;" width="145.8613" x="184.07" y="92.6094"/><rect fill="#FFFFFF" height="10" style="stroke:#000000;stroke-width:1;" width="15" x="309.9313" y="97.6094"/><rect fill="#FFFFFF" height="2" style="stroke:#000000;stroke-width:1;" width="4" x="307.9313" y="99.6094"/><rect fill="#FFFFFF" height="2" style="stroke:#000000;stroke-width:1;" width="4" x="307.9313" y="103.6094"/><text fill="#000000" font-family="Verdana" font-size="14" lengthAdjust="spacing" textLength="105.8613" x="199.07" y="125.6045">SettingsScreen</text></g><!--entity OnboardingScreen--><g class="entity" data-entity="OnboardingScreen" data-source-line="8" data-uid="ent0005" id="entity_OnboardingScreen"><rect fill="#FFFFFF" height="46.2969" rx="2.5" ry="2.5" style="stroke:#000000;stroke-width:1;" width="170.6553" x="364.67" y="92.6094"/><rect fill="#FFFFFF" height="10" style="stroke:#000000;stroke-width:1;" width="15" x="515.3253" y="97.6094"/><rect fill="#FFFFFF" height="2" style="stroke:#000000;stroke-width:1;" width="4" x="513.3253" y="99.6094"/><rect fill="#FFFFFF" height="2" style="stroke:#000000;stroke-width:1;" width="4" x="513.3253" y="103.6094"/><text fill="#000000" font-family="Verdana" font-size="14" lengthAdjust="spacing" textLength="130.6553" x="379.67" y="125.6045">OnboardingScreen</text></g><!--entity LanguageManager--><g class="entity" data-entity="LanguageManager" data-source-line="12" data-uid="ent0007" id="entity_LanguageManager"><rect fill="#FFFFFF" height="46.2969" rx="2.5" ry="2.5" style="stroke:#000000;stroke-width:1;" width="170.457" x="231.77" y="238.9094"/><rect fill="#FFFFFF" height="10" style="stroke:#000000;stroke-width:1;" width="15" x="382.227" y="243.9094"/><rect fill="#FFFFFF" height="2" style="stroke:#000000;stroke-width:1;" width="4" x="380.227" y="245.9094"/><rect fill="#FFFFFF" height="2" style="stroke:#000000;stroke-width:1;" width="4" x="380.227" y="249.9094"/><text fill="#000000" font-family="Verdana" font-size="14" lengthAdjust="spacing" textLength="130.457" x="246.77" y="271.9045">LanguageManager</text></g><!--entity ResourceLoader--><g class="entity" data-entity="ResourceLoader" data-source-line="13" data-uid="ent0008" id="entity_ResourceLoader"><rect fill="#FFFFFF" height="46.2969" rx="2.5" ry="2.5" style="stroke:#000000;stroke-width:1;" width="153.3398" x="232.33" y="362.1994"/><rect fill="#FFFFFF" height="10" style="stroke:#000000;stroke-width:1;" width="15" x="365.6698" y="367.1994"/><rect fill="#FFFFFF" height="2" style="stroke:#000000;stroke-width:1;" width="4" x="363.6698" y="369.1994"/><rect fill="#FFFFFF" height="2" style="stroke:#000000;stroke-width:1;" width="4" x="363.6698" y="373.1994"/><text fill="#000000" font-family="Verdana" font-size="14" lengthAdjust="spacing" textLength="113.3398" x="247.33" y="395.1945">ResourceLoader</text></g><!--entity UserPreferences--><g class="entity" data-entity="UserPreferences" data-source-line="17" data-uid="ent0010" id="entity_UserPreferences"><rect fill="#FFFFFF" height="46.2969" rx="2.5" ry="2.5" style="stroke:#000000;stroke-width:1;" width="155.1104" x="688.44" y="362.1994"/><rect fill="#FFFFFF" height="10" style="stroke:#000000;stroke-width:1;" width="15" x="823.5504" y="367.1994"/><rect fill="#FFFFFF" height="2" style="stroke:#000000;stroke-width:1;" width="4" x="821.5504" y="369.1994"/><rect fill="#FFFFFF" height="2" style="stroke:#000000;stroke-width:1;" width="4" x="821.5504" y="373.1994"/><text fill="#000000" font-family="Verdana" font-size="14" lengthAdjust="spacing" textLength="115.1104" x="703.44" y="395.1945">UserPreferences</text></g><!--entity ConsentService--><g class="entity" data-entity="ConsentService" data-source-line="18" data-uid="ent0011" id="entity_ConsentService"><rect fill="#FFFFFF" height="46.2969" rx="2.5" ry="2.5" style="stroke:#000000;stroke-width:1;" width="149.2246" x="688.39" y="238.9094"/><rect fill="#FFFFFF" height="10" style="stroke:#000000;stroke-width:1;" width="15" x="817.6146" y="243.9094"/><rect fill="#FFFFFF" height="2" style="stroke:#000000;stroke-width:1;" width="4" x="815.6146" y="245.9094"/><rect fill="#FFFFFF" height="2" style="stroke:#000000;stroke-width:1;" width="4" x="815.6146" y="249.9094"/><text fill="#000000" font-family="Verdana" font-size="14" lengthAdjust="spacing" textLength="109.2246" x="703.39" y="271.9045">ConsentService</text></g><!--link SettingsScreen to LanguageManager--><g class="link" data-entity-1="SettingsScreen" data-entity-2="LanguageManager" data-source-line="21" data-uid="lnk12" id="link_SettingsScreen_LanguageManager"><path d="M263.72,139.1494 C268.17,153.2994 274.39,171.8794 281,187.9094 C288.18,205.3094 294.8595,219.0421 302.2695,233.3421" fill="none" id="SettingsScreen-to-LanguageManager" style="stroke:#000000;stroke-width:1;"/><polygon fill="#000000" points="305.03,238.6694,304.4408,228.8382,302.7296,234.23,297.3378,232.5188,305.03,238.6694" style="stroke:#000000;stroke-width:1;"/><text fill="#000000" font-family="Verdana" font-size="13" lengthAdjust="spacing" textLength="114.4292" x="282" y="183.9763">Change language</text></g><!--link OnboardingScreen to LanguageManager--><g class="link" data-entity-1="OnboardingScreen" data-entity-2="LanguageManager" data-source-line="22" data-uid="lnk13" id="link_OnboardingScreen_LanguageManager"><path d="M436.54,139.2894 C427.37,153.8394 414.48,172.7994 401,187.9094 C384.39,206.5194 367.855,221.1661 350.905,234.8761" fill="none" id="OnboardingScreen-to-LanguageManager" style="stroke:#000000;stroke-width:1;"/><polygon fill="#000000" points="346.24,238.6494,355.753,236.0994,350.1275,235.505,350.722,229.8794,346.24,238.6494" style="stroke:#000000;stroke-width:1;"/><text fill="#000000" font-family="Verdana" font-size="13" lengthAdjust="spacing" textLength="104.7617" x="415.47" y="183.9763">Select language</text></g><!--link LanguageManager to ResourceLoader--><g class="link" data-entity-1="LanguageManager" data-entity-2="ResourceLoader" data-source-line="23" data-uid="lnk14" id="link_LanguageManager_ResourceLoader"><path d="M286.1,285.5694 C277.26,293.7994 268.74,303.8894 264,315.1994 C257.03,331.8494 263.6138,344.5806 276.3738,357.5606" fill="none" id="LanguageManager-to-ResourceLoader" style="stroke:#000000;stroke-width:1;"/><polygon fill="#000000" points="280.58,361.8394,277.1232,352.6171,277.0748,358.2738,271.4182,358.2254,280.58,361.8394" style="stroke:#000000;stroke-width:1;"/><text fill="#000000" font-family="Verdana" font-size="13" lengthAdjust="spacing" textLength="99.1187" x="265" y="328.2663">Load resources</text></g><!--link ResourceLoader to MainScreen--><g class="link" data-entity-1="ResourceLoader" data-entity-2="MainScreen" data-source-line="24" data-uid="lnk15" id="link_ResourceLoader_MainScreen"><path d="M232.03,377.2294 C172.45,367.2194 93.63,343.1294 54,285.1994 C23.26,240.2694 50.6216,178.9807 70.5916,144.5207" fill="none" id="ResourceLoader-to-MainScreen" style="stroke:#000000;stroke-width:1;"/><polygon fill="#000000" points="73.6,139.3294,65.6265,145.1107,71.093,143.6554,72.5482,149.1219,73.6,139.3294" style="stroke:#000000;stroke-width:1;"/><text fill="#000000" font-family="Verdana" font-size="13" lengthAdjust="spacing" textLength="158.0249" x="55" y="266.6163">Provide localized strings</text></g><!--link UserPreferences to LanguageManager--><g class="link" data-entity-1="UserPreferences" data-entity-2="LanguageManager" data-source-line="25" data-uid="lnk16" id="link_UserPreferences_LanguageManager"><path d="M688.23,384.5994 C612.93,382.2294 496.97,371.5994 405,332.1994 C379.64,321.3394 359.6977,305.3737 343.0777,289.6437" fill="none" id="UserPreferences-to-LanguageManager" style="stroke:#000000;stroke-width:1;"/><polygon fill="#000000" points="338.72,285.5194,342.507,294.6111,342.3514,288.9563,348.0061,288.8008,338.72,285.5194" style="stroke:#000000;stroke-width:1;"/><text fill="#000000" font-family="Verdana" font-size="13" lengthAdjust="spacing" textLength="154.3242" x="406" y="328.2663">Persist language choice</text></g><!--link LanguageManager to UserPreferences--><g class="link" data-entity-1="LanguageManager" data-entity-2="UserPreferences" data-source-line="26" data-uid="lnk17" id="link_LanguageManager_UserPreferences"><path d="M402.57,278.3294 C450.65,287.5894 511.56,300.4494 565,315.1994 C613.38,328.5594 661.4475,345.1718 701.1675,359.7518" fill="none" id="LanguageManager-to-UserPreferences" style="stroke:#000000;stroke-width:1;"/><polygon fill="#000000" points="706.8,361.8194,699.7296,354.9631,702.1062,360.0964,696.9729,362.4731,706.8,361.8194" style="stroke:#000000;stroke-width:1;"/><text fill="#000000" font-family="Verdana" font-size="13" lengthAdjust="spacing" textLength="106.939" x="621.87" y="328.2663">Save preference</text></g><!--link OnboardingScreen to ConsentService--><g class="link" data-entity-1="OnboardingScreen" data-entity-2="ConsentService" data-source-line="27" data-uid="lnk18" id="link_OnboardingScreen_ConsentService"><path d="M498.91,139.2994 C557.54,166.3294 649.7715,208.8467 708.4715,235.9167" fill="none" id="OnboardingScreen-to-ConsentService" style="stroke:#000000;stroke-width:1;"/><polygon fill="#000000" points="713.92,238.4294,707.4223,231.028,709.3795,236.3355,704.0721,238.2928,713.92,238.4294" style="stroke:#000000;stroke-width:1;"/><text fill="#000000" font-family="Verdana" font-size="13" lengthAdjust="spacing" textLength="209.0728" x="598.12" y="183.9763">Request privacy/COPPA consent</text></g><!--link ConsentService to UserPreferences--><g class="link" data-entity-1="ConsentService" data-entity-2="UserPreferences" data-source-line="28" data-uid="lnk19" id="link_ConsentService_UserPreferences"><path d="M763.56,285.5894 C764.1,307.3694 764.761,334.2012 765.301,355.9412" fill="none" id="ConsentService-to-UserPreferences" style="stroke:#000000;stroke-width:1;"/><polygon fill="#000000" points="765.45,361.9394,769.2253,352.8428,765.3258,356.9409,761.2278,353.0415,765.45,361.9394" style="stroke:#000000;stroke-width:1;"/><text fill="#000000" font-family="Verdana" font-size="13" lengthAdjust="spacing" textLength="90.2256" x="765.68" y="328.2663">Store consent</text></g><!--SRC=[TP9FIyGm4CNl-HJZNbImx1yGnOEmh1w4Bbksx4ayn7Is3TQaJjB2AdvtfxMhPKClfNcPtykRISvyWUy8LIcr4S9hNo8ioHSrdJk8zPvNLGKHwFcjcPRpcU5TLMYFojU4SD7Chs0nMrn7ivjB8IgftcIEC6cXtTC4lWJ0yvgzKqM8vgLTfkYzDhaRI1lpQYLbh1x5xu5PR9KizQVqsXfuDBass3l7qkGrrwobuIzrNbjqjYQ5iPLPAmsT7gIN4Ci3Kc-mSqW9uHu9ZKBN6QoiSMXyYjHeXPt1QMQ8ellmTBY3LS4QGjdlYB2pKJJ5aeSwG8EQZZnfZy7s3wYNdGWgEcnm1umaP1kTSSxVoM86pbFRdmWcCfetGNBQ_GS6LLYUrrZkm9SxbWs_l3zjT5Wd5yBa5ZzgvBChqerKX-bgaoHBKBzr8W160tZBR_Y8_G00]--></g></svg>