<svg xmlns="http://www.w3.org/2000/svg" xmlns:xlink="http://www.w3.org/1999/xlink" contentStyleType="text/css" data-diagram-type="SEQUENCE" height="608px" preserveAspectRatio="none" style="width:1075px;height:608px;background:#FFFFFF;" version="1.1" viewBox="0 0 1075 608" width="1075px" zoomAndPan="magnify"><title>Arthur's Life App - Onboarding &amp; Family Setup Flow (v1, 2025-07)</title><defs/><g><text fill="#000000" font-family="Verdana" font-size="22" font-weight="bold" lengthAdjust="spacing" textLength="817.5127" x="135.4155" y="35.4209">Arthur's Life App - Onboarding &amp; Family Setup Flow (v1, 2025-07)</text><g><title>NewUser</title><rect fill="#000000" fill-opacity="0.00000" height="398.7266" width="8" x="40.2231" y="128.9063"/><line style="stroke:#000000;stroke-width:1;" x1="44" x2="44" y1="128.9063" y2="527.6328"/></g><g><title>App UI</title><rect fill="#000000" fill-opacity="0.00000" height="398.7266" width="8" x="336.4614" y="128.9063"/><line style="stroke:#000000;stroke-width:1;" x1="340.373" x2="340.373" y1="128.9063" y2="527.6328"/></g><g><title>FamilyService</title><rect fill="#000000" fill-opacity="0.00000" height="398.7266" width="8" x="548.5869" y="128.9063"/><line style="stroke:#000000;stroke-width:1;" x1="552.5493" x2="552.5493" y1="128.9063" y2="527.6328"/></g><g><title>UserRepository</title><rect fill="#000000" fill-opacity="0.00000" height="398.7266" width="8" x="703.4756" y="128.9063"/><line style="stroke:#000000;stroke-width:1;" x1="706.9844" x2="706.9844" y1="128.9063" y2="527.6328"/></g><g><title>ConsentService</title><rect fill="#000000" fill-opacity="0.00000" height="398.7266" width="8" x="855.5791" y="128.9063"/><line style="stroke:#000000;stroke-width:1;" x1="858.9668" x2="858.9668" y1="128.9063" y2="527.6328"/></g><g><title>PrivacyMonitor</title><rect fill="#000000" fill-opacity="0.00000" height="398.7266" width="8" x="1006.2676" y="128.9063"/><line style="stroke:#000000;stroke-width:1;" x1="1010.1914" x2="1010.1914" y1="128.9063" y2="527.6328"/></g><g class="participant participant-head" data-participant="NewUser"><text fill="#000000" font-family="Verdana" font-size="14" lengthAdjust="spacing" textLength="62.4463" x="10" y="125.6045">NewUser</text><ellipse cx="44.2231" cy="60.6094" fill="#FFFFFF" rx="8" ry="8" style="stroke:#000000;stroke-width:1;"/><path d="M44.2231,68.6094 L44.2231,95.6094 M31.2231,76.6094 L57.2231,76.6094 M44.2231,95.6094 L31.2231,110.6094 M44.2231,95.6094 L57.2231,110.6094" fill="none" style="stroke:#000000;stroke-width:1;"/></g><g class="participant participant-tail" data-participant="NewUser"><text fill="#000000" font-family="Verdana" font-size="14" lengthAdjust="spacing" textLength="62.4463" x="10" y="539.6279">NewUser</text><ellipse cx="44.2231" cy="551.9297" fill="#FFFFFF" rx="8" ry="8" style="stroke:#000000;stroke-width:1;"/><path d="M44.2231,559.9297 L44.2231,586.9297 M31.2231,567.9297 L57.2231,567.9297 M44.2231,586.9297 L31.2231,601.9297 M44.2231,586.9297 L57.2231,601.9297" fill="none" style="stroke:#000000;stroke-width:1;"/></g><g class="participant participant-head" data-participant="UI"><rect fill="#FFFFFF" height="30.2969" rx="2.5" ry="2.5" style="stroke:#000000;stroke-width:1;" width="60.1768" x="310.373" y="97.6094"/><text fill="#000000" font-family="Verdana" font-size="14" lengthAdjust="spacing" textLength="46.1768" x="317.373" y="117.6045">App UI</text></g><g class="participant participant-tail" data-participant="UI"><rect fill="#FFFFFF" height="30.2969" rx="2.5" ry="2.5" style="stroke:#000000;stroke-width:1;" width="60.1768" x="310.373" y="526.6328"/><text fill="#000000" font-family="Verdana" font-size="14" lengthAdjust="spacing" textLength="46.1768" x="317.373" y="546.6279">App UI</text></g><g class="participant participant-head" data-participant="FamilySvc"><rect fill="#FFFFFF" height="30.2969" rx="2.5" ry="2.5" style="stroke:#000000;stroke-width:1;" width="112.0752" x="496.5493" y="97.6094"/><text fill="#000000" font-family="Verdana" font-size="14" lengthAdjust="spacing" textLength="98.0752" x="503.5493" y="117.6045">FamilyService</text></g><g class="participant participant-tail" data-participant="FamilySvc"><rect fill="#FFFFFF" height="30.2969" rx="2.5" ry="2.5" style="stroke:#000000;stroke-width:1;" width="112.0752" x="496.5493" y="526.6328"/><text fill="#000000" font-family="Verdana" font-size="14" lengthAdjust="spacing" textLength="98.0752" x="503.5493" y="546.6279">FamilyService</text></g><g class="participant participant-head" data-participant="UserRepo"><rect fill="#FFFFFF" height="30.2969" rx="2.5" ry="2.5" style="stroke:#000000;stroke-width:1;" width="120.9824" x="646.9844" y="97.6094"/><text fill="#000000" font-family="Verdana" font-size="14" lengthAdjust="spacing" textLength="106.9824" x="653.9844" y="117.6045">UserRepository</text></g><g class="participant participant-tail" data-participant="UserRepo"><rect fill="#FFFFFF" height="30.2969" rx="2.5" ry="2.5" style="stroke:#000000;stroke-width:1;" width="120.9824" x="646.9844" y="526.6328"/><text fill="#000000" font-family="Verdana" font-size="14" lengthAdjust="spacing" textLength="106.9824" x="653.9844" y="546.6279">UserRepository</text></g><g class="participant participant-head" data-participant="ConsentSvc"><rect fill="#FFFFFF" height="30.2969" rx="2.5" ry="2.5" style="stroke:#000000;stroke-width:1;" width="123.2246" x="797.9668" y="97.6094"/><text fill="#000000" font-family="Verdana" font-size="14" lengthAdjust="spacing" textLength="109.2246" x="804.9668" y="117.6045">ConsentService</text></g><g class="participant participant-tail" data-participant="ConsentSvc"><rect fill="#FFFFFF" height="30.2969" rx="2.5" ry="2.5" style="stroke:#000000;stroke-width:1;" width="123.2246" x="797.9668" y="526.6328"/><text fill="#000000" font-family="Verdana" font-size="14" lengthAdjust="spacing" textLength="109.2246" x="804.9668" y="546.6279">ConsentService</text></g><g class="participant participant-head" data-participant="PrivacyMon"><rect fill="#FFFFFF" height="30.2969" rx="2.5" ry="2.5" style="stroke:#000000;stroke-width:1;" width="118.1523" x="951.1914" y="97.6094"/><text fill="#000000" font-family="Verdana" font-size="14" lengthAdjust="spacing" textLength="104.1523" x="958.1914" y="117.6045">PrivacyMonitor</text></g><g class="participant participant-tail" data-participant="PrivacyMon"><rect fill="#FFFFFF" height="30.2969" rx="2.5" ry="2.5" style="stroke:#000000;stroke-width:1;" width="118.1523" x="951.1914" y="526.6328"/><text fill="#000000" font-family="Verdana" font-size="14" lengthAdjust="spacing" textLength="104.1523" x="958.1914" y="546.6279">PrivacyMonitor</text></g><g class="message" data-participant-1="NewUser" data-participant-2="UI"><polygon fill="#000000" points="328.4614,156.0391,338.4614,160.0391,328.4614,164.0391,332.4614,160.0391" style="stroke:#000000;stroke-width:1;"/><line style="stroke:#000000;stroke-width:1;" x1="44.2231" x2="334.4614" y1="160.0391" y2="160.0391"/><text fill="#000000" font-family="Verdana" font-size="13" lengthAdjust="spacing" textLength="75.6768" x="51.2231" y="154.9731">Launch app</text></g><g class="message" data-participant-1="UI" data-participant-2="NewUser"><polygon fill="#000000" points="55.2231,185.1719,45.2231,189.1719,55.2231,193.1719,51.2231,189.1719" style="stroke:#000000;stroke-width:1;"/><line style="stroke:#000000;stroke-width:1;" x1="49.2231" x2="339.4614" y1="189.1719" y2="189.1719"/><text fill="#000000" font-family="Verdana" font-size="13" lengthAdjust="spacing" textLength="167.6797" x="61.2231" y="184.106">Show onboarding screens</text></g><g class="message" data-participant-1="NewUser" data-participant-2="UI"><polygon fill="#000000" points="328.4614,214.3047,338.4614,218.3047,328.4614,222.3047,332.4614,218.3047" style="stroke:#000000;stroke-width:1;"/><line style="stroke:#000000;stroke-width:1;" x1="44.2231" x2="334.4614" y1="218.3047" y2="218.3047"/><text fill="#000000" font-family="Verdana" font-size="13" lengthAdjust="spacing" textLength="108.8877" x="51.2231" y="213.2388">Enter profile info</text></g><g class="message" data-participant-1="UI" data-participant-2="FamilySvc"><polygon fill="#000000" points="540.5869,243.4375,550.5869,247.4375,540.5869,251.4375,544.5869,247.4375" style="stroke:#000000;stroke-width:1;"/><line style="stroke:#000000;stroke-width:1;" x1="340.4614" x2="546.5869" y1="247.4375" y2="247.4375"/><text fill="#000000" font-family="Verdana" font-size="13" lengthAdjust="spacing" textLength="188.1255" x="347.4614" y="242.3716">Create family or join existing</text></g><g class="message" data-participant-1="FamilySvc" data-participant-2="UserRepo"><polygon fill="#000000" points="695.4756,272.5703,705.4756,276.5703,695.4756,280.5703,699.4756,276.5703" style="stroke:#000000;stroke-width:1;"/><line style="stroke:#000000;stroke-width:1;" x1="552.5869" x2="701.4756" y1="276.5703" y2="276.5703"/><text fill="#000000" font-family="Verdana" font-size="13" lengthAdjust="spacing" textLength="86.5947" x="559.5869" y="271.5044">Register user</text></g><g class="message" data-participant-1="UserRepo" data-participant-2="FamilySvc"><polygon fill="#000000" points="563.5869,301.7031,553.5869,305.7031,563.5869,309.7031,559.5869,305.7031" style="stroke:#000000;stroke-width:1;"/><line style="stroke:#000000;stroke-width:1;stroke-dasharray:2,2;" x1="557.5869" x2="706.4756" y1="305.7031" y2="305.7031"/><text fill="#000000" font-family="Verdana" font-size="13" lengthAdjust="spacing" textLength="130.8887" x="569.5869" y="300.6372">Confirm registration</text></g><g class="message" data-participant-1="FamilySvc" data-participant-2="ConsentSvc"><polygon fill="#000000" points="847.5791,330.8359,857.5791,334.8359,847.5791,338.8359,851.5791,334.8359" style="stroke:#000000;stroke-width:1;"/><line style="stroke:#000000;stroke-width:1;" x1="552.5869" x2="853.5791" y1="334.8359" y2="334.8359"/><text fill="#000000" font-family="Verdana" font-size="13" lengthAdjust="spacing" textLength="209.0728" x="559.5869" y="329.77">Request privacy/COPPA consent</text></g><g class="message" data-participant-1="ConsentSvc" data-participant-2="NewUser"><polygon fill="#000000" points="55.2231,359.9688,45.2231,363.9688,55.2231,367.9688,51.2231,363.9688" style="stroke:#000000;stroke-width:1;"/><line style="stroke:#000000;stroke-width:1;" x1="49.2231" x2="858.5791" y1="363.9688" y2="363.9688"/><text fill="#000000" font-family="Verdana" font-size="13" lengthAdjust="spacing" textLength="147.2783" x="61.2231" y="358.9028">Display consent dialog</text></g><g class="message" data-participant-1="NewUser" data-participant-2="ConsentSvc"><polygon fill="#000000" points="847.5791,389.1016,857.5791,393.1016,847.5791,397.1016,851.5791,393.1016" style="stroke:#000000;stroke-width:1;"/><line style="stroke:#000000;stroke-width:1;" x1="44.2231" x2="853.5791" y1="393.1016" y2="393.1016"/><text fill="#000000" font-family="Verdana" font-size="13" lengthAdjust="spacing" textLength="104.2729" x="51.2231" y="388.0356">Provide consent</text></g><g class="message" data-participant-1="ConsentSvc" data-participant-2="PrivacyMon"><polygon fill="#000000" points="998.2676,418.2344,1008.2676,422.2344,998.2676,426.2344,1002.2676,422.2344" style="stroke:#000000;stroke-width:1;"/><line style="stroke:#000000;stroke-width:1;" x1="859.5791" x2="1004.2676" y1="422.2344" y2="422.2344"/><text fill="#000000" font-family="Verdana" font-size="13" lengthAdjust="spacing" textLength="79.0283" x="866.5791" y="417.1685">Log consent</text></g><g class="message" data-participant-1="FamilySvc" data-participant-2="UI"><polygon fill="#000000" points="351.4614,447.3672,341.4614,451.3672,351.4614,455.3672,347.4614,451.3672" style="stroke:#000000;stroke-width:1;"/><line style="stroke:#000000;stroke-width:1;" x1="345.4614" x2="551.5869" y1="451.3672" y2="451.3672"/><text fill="#000000" font-family="Verdana" font-size="13" lengthAdjust="spacing" textLength="148.3701" x="357.4614" y="446.3013">Family setup complete</text></g><g class="message" data-participant-1="UI" data-participant-2="NewUser"><polygon fill="#000000" points="55.2231,476.5,45.2231,480.5,55.2231,484.5,51.2231,480.5" style="stroke:#000000;stroke-width:1;"/><line style="stroke:#000000;stroke-width:1;" x1="49.2231" x2="339.4614" y1="480.5" y2="480.5"/><text fill="#000000" font-family="Verdana" font-size="13" lengthAdjust="spacing" textLength="272.2383" x="61.2231" y="475.4341">Assign initial role (Child/Caregiver/Admin)</text></g><g class="message" data-participant-1="UI" data-participant-2="NewUser"><polygon fill="#000000" points="55.2231,505.6328,45.2231,509.6328,55.2231,513.6328,51.2231,509.6328" style="stroke:#000000;stroke-width:1;"/><line style="stroke:#000000;stroke-width:1;" x1="49.2231" x2="339.4614" y1="509.6328" y2="509.6328"/><text fill="#000000" font-family="Verdana" font-size="13" lengthAdjust="spacing" textLength="197.9897" x="61.2231" y="504.5669">Show welcome and next steps</text></g><!--SRC=[TPB1Rjim38RlUWgkXwq55gGjC1JeOK3WhS20hWqQz05KcROvs996qKxpzgCT9uxRxcIG-lr9-gXFKc6346jBtXWXgH5MB5NBNnBSKw5LZB20H_yIBEVaI_WCTxQXUWSRb3R2NHssSDvTVONho-jlYykR2sEiay3mWDldX6oYPI57qNg1inxt_EiCRDBFV6cFtI1tv718Z9tEpOCzzGbZIAJRxFQiiJKFPi4dz7AAFBJUCjTCdNMxty7tq24wjOmPxmABxtfik8LxstfNWOtHQAtTG-0MDfKA2PElv1ZHftU8drwqYXmAKkdaYp2YZhVMKCPe1Q7O6rUfVm9vm5TAecmpHNlgw41_Uy9I4ufl-m4S5nPlwS4Nn0tm46Shf7UTCITT0_LlYqdqp8EOPVQuNg_0xIFc93hpyOEIFg_T8GSvsJgKfpfccwmvT9JZVx3JJFeXXF8Ocvle_OwlD0slr8KcrYZuRbghbAZqgfz4pmKST1RdMKLrlinixwL3NgxoXlp5nvFUOgrm1EjpyFWgeDvZ-WS0]--></g></svg>