<svg xmlns="http://www.w3.org/2000/svg" xmlns:xlink="http://www.w3.org/1999/xlink" contentStyleType="text/css" data-diagram-type="SEQUENCE" height="1005px" preserveAspectRatio="none" style="width:1733px;height:1005px;background:#FFFFFF;" version="1.1" viewBox="0 0 1733 1005" width="1733px" zoomAndPan="magnify"><title>Arthur Completes a Task - Sequence Diagram (v1, 2025-07)</title><defs/><g><text fill="#000000" font-family="sans-serif" font-size="14" font-weight="bold" lengthAdjust="spacing" textLength="470.3672" x="630.7197" y="27.9951">Arthur Completes a Task - Sequence Diagram (v1, 2025-07)</text><g><title>TaskButton</title><rect fill="#FFFFFF" height="731.0547" style="stroke:#696969;stroke-width:1;" width="10" x="210.603" y="184.8594"/></g><g><title>TasksViewModel</title><rect fill="#FFFFFF" height="592.5234" style="stroke:#696969;stroke-width:1;" width="10" x="462.4863" y="272.2578"/></g><g><title>EarnTokenUseCase</title><rect fill="#FFFFFF" height="492.125" style="stroke:#696969;stroke-width:1;" width="10" x="682.5615" y="301.3906"/></g><g><title>Task</title><rect fill="#FFFFFF" height="145.6641" style="stroke:#696969;stroke-width:1;" width="10" x="880.1997" y="330.5234"/></g><g><title>User</title><rect fill="#FFFFFF" height="113.3984" style="stroke:#696969;stroke-width:1;" width="10" x="936.4209" y="563.5859"/></g><g><title>RewardCalculationService</title><rect fill="#FFFFFF" height="87.3984" style="stroke:#696969;stroke-width:1;" width="10" x="1130.9995" y="359.6563"/></g><g><title>Arthur</title><rect fill="#000000" fill-opacity="0.00000" height="806.3203" width="8" x="30.1621" y="118.5938"/><line style="stroke:#696969;stroke-width:0.5;stroke-dasharray:5,5;" x1="34" x2="34" y1="118.5938" y2="924.9141"/></g><g><title>TaskButton</title><rect fill="#000000" fill-opacity="0.00000" height="806.3203" width="8" x="211.603" y="118.5938"/><line style="stroke:#696969;stroke-width:0.5;stroke-dasharray:5,5;" x1="215.0591" x2="215.0591" y1="118.5938" y2="924.9141"/></g><g><title>TasksViewModel</title><rect fill="#000000" fill-opacity="0.00000" height="806.3203" width="8" x="463.4863" y="118.5938"/><line style="stroke:#696969;stroke-width:0.5;stroke-dasharray:5,5;" x1="466.791" x2="466.791" y1="118.5938" y2="924.9141"/></g><g><title>EarnTokenUseCase</title><rect fill="#000000" fill-opacity="0.00000" height="806.3203" width="8" x="683.5615" y="118.5938"/><line style="stroke:#696969;stroke-width:0.5;stroke-dasharray:5,5;" x1="686.9712" x2="686.9712" y1="118.5938" y2="924.9141"/></g><g><title>Task</title><rect fill="#000000" fill-opacity="0.00000" height="806.3203" width="8" x="881.1997" y="118.5938"/><line style="stroke:#696969;stroke-width:0.5;stroke-dasharray:5,5;" x1="884.9336" x2="884.9336" y1="118.5938" y2="924.9141"/></g><g><title>User</title><rect fill="#000000" fill-opacity="0.00000" height="806.3203" width="8" x="937.4209" y="118.5938"/><line style="stroke:#696969;stroke-width:0.5;stroke-dasharray:5,5;" x1="940.4658" x2="940.4658" y1="118.5938" y2="924.9141"/></g><g><title>RewardCalculationService</title><rect fill="#000000" fill-opacity="0.00000" height="806.3203" width="8" x="1131.9995" y="118.5938"/><line style="stroke:#696969;stroke-width:0.5;stroke-dasharray:5,5;" x1="1135.5723" x2="1135.5723" y1="118.5938" y2="924.9141"/></g><g><title>UserRepository</title><rect fill="#000000" fill-opacity="0.00000" height="806.3203" width="8" x="1300.918" y="118.5938"/><line style="stroke:#696969;stroke-width:0.5;stroke-dasharray:5,5;" x1="1304.4268" x2="1304.4268" y1="118.5938" y2="924.9141"/></g><g><title>TalkBack</title><rect fill="#000000" fill-opacity="0.00000" height="806.3203" width="8" x="1409.9673" y="118.5938"/><line style="stroke:#696969;stroke-width:0.5;stroke-dasharray:5,5;" x1="1413.4092" x2="1413.4092" y1="118.5938" y2="924.9141"/></g><g><title>FraudDetectionService</title><rect fill="#000000" fill-opacity="0.00000" height="806.3203" width="8" x="1545.4751" y="118.5938"/><line style="stroke:#696969;stroke-width:0.5;stroke-dasharray:5,5;" x1="1548.5254" x2="1548.5254" y1="118.5938" y2="924.9141"/></g><g><title>AuditTrail</title><rect fill="#000000" fill-opacity="0.00000" height="806.3203" width="8" x="1683.1157" y="118.5938"/><line style="stroke:#696969;stroke-width:0.5;stroke-dasharray:5,5;" x1="1686.4248" x2="1686.4248" y1="118.5938" y2="924.9141"/></g><g class="participant participant-head" data-participant="Arthur"><text fill="#454645" font-family="sans-serif" font-size="14" lengthAdjust="spacing" textLength="44.3242" x="9" y="115.292">Arthur</text><ellipse cx="34.1621" cy="50.7969" fill="#454645" rx="8" ry="8" style="stroke:#454645;stroke-width:0.5;"/><path d="M34.1621,58.7969 L34.1621,85.7969 M21.1621,66.7969 L47.1621,66.7969 M34.1621,85.7969 L21.1621,100.7969 M34.1621,85.7969 L47.1621,100.7969" fill="none" style="stroke:#454645;stroke-width:0.5;"/></g><g class="participant participant-tail" data-participant="Arthur"><text fill="#454645" font-family="sans-serif" font-size="14" lengthAdjust="spacing" textLength="44.3242" x="9" y="936.9092">Arthur</text><ellipse cx="34.1621" cy="948.7109" fill="#454645" rx="8" ry="8" style="stroke:#454645;stroke-width:0.5;"/><path d="M34.1621,956.7109 L34.1621,983.7109 M21.1621,964.7109 L47.1621,964.7109 M34.1621,983.7109 L21.1621,998.7109 M34.1621,983.7109 L47.1621,998.7109" fill="none" style="stroke:#454645;stroke-width:0.5;"/></g><g class="participant participant-head" data-participant="UI"><rect fill="#FF6347" height="46.5938" rx="3.5" ry="3.5" style="stroke:#454645;stroke-width:1.5;" width="109.0879" x="161.0591" y="71"/><text fill="#FFFFFF" font-family="sans-serif" font-size="14" lengthAdjust="spacing" textLength="79.4268" x="175.8896" y="90.9951">TaskButton</text><text fill="#FFFFFF" font-family="sans-serif" font-size="14" lengthAdjust="spacing" textLength="95.0879" x="168.0591" y="107.292">(Compose UI)</text></g><g class="participant participant-tail" data-participant="UI"><rect fill="#FF6347" height="46.5938" rx="3.5" ry="3.5" style="stroke:#454645;stroke-width:1.5;" width="109.0879" x="161.0591" y="923.9141"/><text fill="#FFFFFF" font-family="sans-serif" font-size="14" lengthAdjust="spacing" textLength="79.4268" x="175.8896" y="943.9092">TaskButton</text><text fill="#FFFFFF" font-family="sans-serif" font-size="14" lengthAdjust="spacing" textLength="95.0879" x="168.0591" y="960.2061">(Compose UI)</text></g><g class="participant participant-head" data-participant="VM"><rect fill="#FF6347" height="30.2969" rx="3.5" ry="3.5" style="stroke:#454645;stroke-width:1.5;" width="129.3906" x="402.791" y="87.2969"/><text fill="#FFFFFF" font-family="sans-serif" font-size="14" lengthAdjust="spacing" textLength="115.3906" x="409.791" y="107.292">TasksViewModel</text></g><g class="participant participant-tail" data-participant="VM"><rect fill="#FF6347" height="30.2969" rx="3.5" ry="3.5" style="stroke:#454645;stroke-width:1.5;" width="129.3906" x="402.791" y="923.9141"/><text fill="#FFFFFF" font-family="sans-serif" font-size="14" lengthAdjust="spacing" textLength="115.3906" x="409.791" y="943.9092">TasksViewModel</text></g><g class="participant participant-head" data-participant="UC"><rect fill="#FF6347" height="30.2969" rx="3.5" ry="3.5" style="stroke:#454645;stroke-width:1.5;" width="149.1807" x="612.9712" y="87.2969"/><text fill="#FFFFFF" font-family="sans-serif" font-size="14" lengthAdjust="spacing" textLength="135.1807" x="619.9712" y="107.292">EarnTokenUseCase</text></g><g class="participant participant-tail" data-participant="UC"><rect fill="#FF6347" height="30.2969" rx="3.5" ry="3.5" style="stroke:#454645;stroke-width:1.5;" width="149.1807" x="612.9712" y="923.9141"/><text fill="#FFFFFF" font-family="sans-serif" font-size="14" lengthAdjust="spacing" textLength="135.1807" x="619.9712" y="943.9092">EarnTokenUseCase</text></g><g class="participant participant-head" data-participant="Task"><rect fill="#FF6347" height="30.2969" rx="3.5" ry="3.5" style="stroke:#454645;stroke-width:1.5;" width="46.5322" x="861.9336" y="87.2969"/><text fill="#FFFFFF" font-family="sans-serif" font-size="14" lengthAdjust="spacing" textLength="32.5322" x="868.9336" y="107.292">Task</text></g><g class="participant participant-tail" data-participant="Task"><rect fill="#FF6347" height="30.2969" rx="3.5" ry="3.5" style="stroke:#454645;stroke-width:1.5;" width="46.5322" x="861.9336" y="923.9141"/><text fill="#FFFFFF" font-family="sans-serif" font-size="14" lengthAdjust="spacing" textLength="32.5322" x="868.9336" y="943.9092">Task</text></g><g class="participant participant-head" data-participant="User"><rect fill="#FF6347" height="30.2969" rx="3.5" ry="3.5" style="stroke:#454645;stroke-width:1.5;" width="45.9102" x="918.4658" y="87.2969"/><text fill="#FFFFFF" font-family="sans-serif" font-size="14" lengthAdjust="spacing" textLength="31.9102" x="925.4658" y="107.292">User</text></g><g class="participant participant-tail" data-participant="User"><rect fill="#FF6347" height="30.2969" rx="3.5" ry="3.5" style="stroke:#454645;stroke-width:1.5;" width="45.9102" x="918.4658" y="923.9141"/><text fill="#FFFFFF" font-family="sans-serif" font-size="14" lengthAdjust="spacing" textLength="31.9102" x="925.4658" y="943.9092">User</text></g><g class="participant participant-head" data-participant="RCS"><rect fill="#FF6347" height="30.2969" rx="3.5" ry="3.5" style="stroke:#454645;stroke-width:1.5;" width="196.8545" x="1037.5723" y="87.2969"/><text fill="#FFFFFF" font-family="sans-serif" font-size="14" lengthAdjust="spacing" textLength="182.8545" x="1044.5723" y="107.292">RewardCalculationService</text></g><g class="participant participant-tail" data-participant="RCS"><rect fill="#FF6347" height="30.2969" rx="3.5" ry="3.5" style="stroke:#454645;stroke-width:1.5;" width="196.8545" x="1037.5723" y="923.9141"/><text fill="#FFFFFF" font-family="sans-serif" font-size="14" lengthAdjust="spacing" textLength="182.8545" x="1044.5723" y="943.9092">RewardCalculationService</text></g><g class="participant participant-head" data-participant="UR"><rect fill="#FF6347" height="30.2969" rx="3.5" ry="3.5" style="stroke:#454645;stroke-width:1.5;" width="120.9824" x="1244.4268" y="87.2969"/><text fill="#FFFFFF" font-family="sans-serif" font-size="14" lengthAdjust="spacing" textLength="106.9824" x="1251.4268" y="107.292">UserRepository</text></g><g class="participant participant-tail" data-participant="UR"><rect fill="#FF6347" height="30.2969" rx="3.5" ry="3.5" style="stroke:#454645;stroke-width:1.5;" width="120.9824" x="1244.4268" y="923.9141"/><text fill="#FFFFFF" font-family="sans-serif" font-size="14" lengthAdjust="spacing" textLength="106.9824" x="1251.4268" y="943.9092">UserRepository</text></g><g class="participant participant-head" data-participant="TB"><rect fill="#FF6347" height="30.2969" rx="3.5" ry="3.5" style="stroke:#454645;stroke-width:1.5;" width="77.1162" x="1375.4092" y="87.2969"/><text fill="#FFFFFF" font-family="sans-serif" font-size="14" lengthAdjust="spacing" textLength="63.1162" x="1382.4092" y="107.292">TalkBack</text></g><g class="participant participant-tail" data-participant="TB"><rect fill="#FF6347" height="30.2969" rx="3.5" ry="3.5" style="stroke:#454645;stroke-width:1.5;" width="77.1162" x="1375.4092" y="923.9141"/><text fill="#FFFFFF" font-family="sans-serif" font-size="14" lengthAdjust="spacing" textLength="63.1162" x="1382.4092" y="943.9092">TalkBack</text></g><g class="participant participant-head" data-participant="FDS"><rect fill="#FF6347" height="30.2969" rx="3.5" ry="3.5" style="stroke:#454645;stroke-width:1.5;" width="173.8994" x="1462.5254" y="87.2969"/><text fill="#FFFFFF" font-family="sans-serif" font-size="14" lengthAdjust="spacing" textLength="159.8994" x="1469.5254" y="107.292">FraudDetectionService</text></g><g class="participant participant-tail" data-participant="FDS"><rect fill="#FF6347" height="30.2969" rx="3.5" ry="3.5" style="stroke:#454645;stroke-width:1.5;" width="173.8994" x="1462.5254" y="923.9141"/><text fill="#FFFFFF" font-family="sans-serif" font-size="14" lengthAdjust="spacing" textLength="159.8994" x="1469.5254" y="943.9092">FraudDetectionService</text></g><g class="participant participant-head" data-participant="Audit"><rect fill="#FF6347" height="30.2969" rx="3.5" ry="3.5" style="stroke:#454645;stroke-width:1.5;" width="81.3818" x="1646.4248" y="87.2969"/><text fill="#FFFFFF" font-family="sans-serif" font-size="14" lengthAdjust="spacing" textLength="67.3818" x="1653.4248" y="107.292">AuditTrail</text></g><g class="participant participant-tail" data-participant="Audit"><rect fill="#FF6347" height="30.2969" rx="3.5" ry="3.5" style="stroke:#454645;stroke-width:1.5;" width="81.3818" x="1646.4248" y="923.9141"/><text fill="#FFFFFF" font-family="sans-serif" font-size="14" lengthAdjust="spacing" textLength="67.3818" x="1653.4248" y="943.9092">AuditTrail</text></g><g><title>TaskButton</title><rect fill="#FFFFFF" height="731.0547" style="stroke:#696969;stroke-width:1;" width="10" x="210.603" y="184.8594"/></g><g><title>TasksViewModel</title><rect fill="#FFFFFF" height="592.5234" style="stroke:#696969;stroke-width:1;" width="10" x="462.4863" y="272.2578"/></g><g><title>EarnTokenUseCase</title><rect fill="#FFFFFF" height="492.125" style="stroke:#696969;stroke-width:1;" width="10" x="682.5615" y="301.3906"/></g><g><title>Task</title><rect fill="#FFFFFF" height="145.6641" style="stroke:#696969;stroke-width:1;" width="10" x="880.1997" y="330.5234"/></g><g><title>User</title><rect fill="#FFFFFF" height="113.3984" style="stroke:#696969;stroke-width:1;" width="10" x="936.4209" y="563.5859"/></g><g><title>RewardCalculationService</title><rect fill="#FFFFFF" height="87.3984" style="stroke:#696969;stroke-width:1;" width="10" x="1130.9995" y="359.6563"/></g><path d="M5,137.0938 L5,155.0938 A3.5,3.5 0 0 0 8.5,158.5938 L1439.5,158.5938 A3.5,3.5 0 0 0 1443,155.0938 L1443,143.5938 L1433,133.5938 L8.5,133.5938 A3.5,3.5 0 0 0 5,137.0938" fill="#7FFFD4" style="stroke:#454645;stroke-width:1.5;"/><path d="M1433,133.5938 L1433,141.8438 A1.75,1.75 0 0 0 1434.75,143.5938 L1443,143.5938 L1433,133.5938" fill="#7FFFD4" style="stroke:#454645;stroke-width:1.5;"/><text fill="#454645" font-family="sans-serif" font-size="13" lengthAdjust="spacing" textLength="176.6426" x="631.4414" y="150.6606">Arthur's Daily Routine Flow</text><g class="message" data-participant-1="Arthur" data-participant-2="UI"><polygon fill="#454645" points="198.603,180.8594,208.603,184.8594,198.603,188.8594,202.603,184.8594" style="stroke:#454645;stroke-width:1;"/><line style="stroke:#454645;stroke-width:1;" x1="34.1621" x2="204.603" y1="184.8594" y2="184.8594"/><text fill="#000000" font-family="sans-serif" font-size="13" lengthAdjust="spacing" textLength="157.4409" x="41.1621" y="179.7935">Taps "Brush Teeth" task</text></g><g class="message" data-participant-1="UI" data-participant-2="TB"><polygon fill="#454645" points="1401.9673,209.9922,1411.9673,213.9922,1401.9673,217.9922,1405.9673,213.9922" style="stroke:#454645;stroke-width:1;"/><line style="stroke:#454645;stroke-width:1;" x1="220.603" x2="1407.9673" y1="213.9922" y2="213.9922"/><text fill="#000000" font-family="sans-serif" font-size="13" lengthAdjust="spacing" textLength="196.3394" x="227.603" y="208.9263">Announces "Task completed!"</text></g><g class="message" data-participant-1="TB" data-participant-2="Arthur"><polygon fill="#454645" points="45.1621,239.125,35.1621,243.125,45.1621,247.125,41.1621,243.125" style="stroke:#454645;stroke-width:1;"/><line style="stroke:#454645;stroke-width:1;" x1="39.1621" x2="1412.9673" y1="243.125" y2="243.125"/><text fill="#000000" font-family="sans-serif" font-size="13" lengthAdjust="spacing" textLength="148.9224" x="51.1621" y="238.0591">Speaks announcement</text></g><g class="message" data-participant-1="UI" data-participant-2="VM"><polygon fill="#454645" points="450.4863,268.2578,460.4863,272.2578,450.4863,276.2578,454.4863,272.2578" style="stroke:#454645;stroke-width:1;"/><line style="stroke:#454645;stroke-width:1;" x1="220.603" x2="456.4863" y1="272.2578" y2="272.2578"/><text fill="#000000" font-family="sans-serif" font-size="13" lengthAdjust="spacing" textLength="166.8989" x="227.603" y="267.1919">onTaskCompleted(taskId)</text></g><g class="message" data-participant-1="VM" data-participant-2="UC"><polygon fill="#454645" points="670.5615,297.3906,680.5615,301.3906,670.5615,305.3906,674.5615,301.3906" style="stroke:#454645;stroke-width:1;"/><line style="stroke:#454645;stroke-width:1;" x1="472.4863" x2="676.5615" y1="301.3906" y2="301.3906"/><text fill="#000000" font-family="sans-serif" font-size="13" lengthAdjust="spacing" textLength="150.4712" x="479.4863" y="296.3247">execute(userId, taskId)</text></g><g class="message" data-participant-1="UC" data-participant-2="Task"><polygon fill="#454645" points="868.1997,326.5234,878.1997,330.5234,868.1997,334.5234,872.1997,330.5234" style="stroke:#454645;stroke-width:1;"/><line style="stroke:#454645;stroke-width:1;" x1="692.5615" x2="874.1997" y1="330.5234" y2="330.5234"/><text fill="#000000" font-family="sans-serif" font-size="13" lengthAdjust="spacing" textLength="168.6382" x="699.5615" y="325.4575">markCompleted(by: User)</text></g><g class="message" data-participant-1="Task" data-participant-2="RCS"><polygon fill="#454645" points="1118.9995,355.6563,1128.9995,359.6563,1118.9995,363.6563,1122.9995,359.6563" style="stroke:#454645;stroke-width:1;"/><line style="stroke:#454645;stroke-width:1;" x1="890.1997" x2="1124.9995" y1="359.6563" y2="359.6563"/><text fill="#000000" font-family="sans-serif" font-size="13" lengthAdjust="spacing" textLength="221.7998" x="897.1997" y="354.5903">calculateTokenReward(task, user)</text></g><g class="message" data-participant-1="RCS" data-participant-2="User"><polygon fill="#454645" points="952.4209,384.7891,942.4209,388.7891,952.4209,392.7891,948.4209,388.7891" style="stroke:#454645;stroke-width:1;"/><line style="stroke:#454645;stroke-width:1;" x1="946.4209" x2="1129.9995" y1="388.7891" y2="388.7891"/><text fill="#000000" font-family="sans-serif" font-size="13" lengthAdjust="spacing" textLength="115.375" x="958.4209" y="383.7231">getCurrentLevel()</text></g><g class="message" data-participant-1="RCS" data-participant-2="Task"><polygon fill="#454645" points="901.1997,413.9219,891.1997,417.9219,901.1997,421.9219,897.1997,417.9219" style="stroke:#454645;stroke-width:1;"/><line style="stroke:#454645;stroke-width:1;" x1="895.1997" x2="1129.9995" y1="417.9219" y2="417.9219"/><text fill="#000000" font-family="sans-serif" font-size="13" lengthAdjust="spacing" textLength="89.667" x="907.1997" y="412.856">getDifficulty()</text></g><g class="message" data-participant-1="RCS" data-participant-2="UC"><polygon fill="#454645" points="703.5615,443.0547,693.5615,447.0547,703.5615,451.0547,699.5615,447.0547" style="stroke:#454645;stroke-width:1;"/><line style="stroke:#454645;stroke-width:1;stroke-dasharray:2,2;" x1="697.5615" x2="1134.9995" y1="447.0547" y2="447.0547"/><text fill="#000000" font-family="sans-serif" font-size="13" lengthAdjust="spacing" textLength="109.1606" x="709.5615" y="441.9888">TokenAmount(5)</text></g><g class="message" data-participant-1="Task" data-participant-2="UC"><polygon fill="#454645" points="703.5615,472.1875,693.5615,476.1875,703.5615,480.1875,699.5615,476.1875" style="stroke:#454645;stroke-width:1;"/><line style="stroke:#454645;stroke-width:1;stroke-dasharray:2,2;" x1="697.5615" x2="884.1997" y1="476.1875" y2="476.1875"/><text fill="#000000" font-family="sans-serif" font-size="13" lengthAdjust="spacing" textLength="104.6665" x="709.5615" y="471.1216">TaskCompletion</text></g><g class="message" data-participant-1="UC" data-participant-2="FDS"><polygon fill="#454645" points="1537.4751,501.3203,1547.4751,505.3203,1537.4751,509.3203,1541.4751,505.3203" style="stroke:#454645;stroke-width:1;"/><line style="stroke:#454645;stroke-width:1;" x1="692.5615" x2="1543.4751" y1="505.3203" y2="505.3203"/><text fill="#000000" font-family="sans-serif" font-size="13" lengthAdjust="spacing" textLength="170.2441" x="699.5615" y="500.2544">checkForFraud(user, task)</text></g><g class="message" data-participant-1="FDS" data-participant-2="UC"><polygon fill="#454645" points="703.5615,530.4531,693.5615,534.4531,703.5615,538.4531,699.5615,534.4531" style="stroke:#454645;stroke-width:1;"/><line style="stroke:#454645;stroke-width:1;stroke-dasharray:2,2;" x1="697.5615" x2="1548.4751" y1="534.4531" y2="534.4531"/><text fill="#000000" font-family="sans-serif" font-size="13" lengthAdjust="spacing" textLength="118.022" x="709.5615" y="529.3872">FraudCheckResult</text></g><g class="message" data-participant-1="UC" data-participant-2="User"><polygon fill="#454645" points="924.4209,559.5859,934.4209,563.5859,924.4209,567.5859,928.4209,563.5859" style="stroke:#454645;stroke-width:1;"/><line style="stroke:#454645;stroke-width:1;" x1="692.5615" x2="930.4209" y1="563.5859" y2="563.5859"/><text fill="#000000" font-family="sans-serif" font-size="13" lengthAdjust="spacing" textLength="136.2842" x="699.5615" y="558.52">earnTokens(amount)</text></g><g class="message" data-participant-1="User" data-participant-2="User"><line style="stroke:#454645;stroke-width:1;" x1="946.4209" x2="988.4209" y1="592.7188" y2="592.7188"/><line style="stroke:#454645;stroke-width:1;" x1="988.4209" x2="988.4209" y1="592.7188" y2="605.7188"/><line style="stroke:#454645;stroke-width:1;" x1="947.4209" x2="988.4209" y1="605.7188" y2="605.7188"/><polygon fill="#454645" points="957.4209,601.7188,947.4209,605.7188,957.4209,609.7188,953.4209,605.7188" style="stroke:#454645;stroke-width:1;"/><text fill="#000000" font-family="sans-serif" font-size="13" lengthAdjust="spacing" textLength="107.7959" x="953.4209" y="587.6528">updateBalance()</text></g><g class="message" data-participant-1="User" data-participant-2="User"><line style="stroke:#454645;stroke-width:1;" x1="946.4209" x2="988.4209" y1="634.8516" y2="634.8516"/><line style="stroke:#454645;stroke-width:1;" x1="988.4209" x2="988.4209" y1="634.8516" y2="647.8516"/><line style="stroke:#454645;stroke-width:1;" x1="947.4209" x2="988.4209" y1="647.8516" y2="647.8516"/><polygon fill="#454645" points="957.4209,643.8516,947.4209,647.8516,957.4209,651.8516,953.4209,647.8516" style="stroke:#454645;stroke-width:1;"/><text fill="#000000" font-family="sans-serif" font-size="13" lengthAdjust="spacing" textLength="100.5151" x="953.4209" y="629.7856">checkLevelUp()</text></g><g class="message" data-participant-1="User" data-participant-2="UC"><polygon fill="#454645" points="703.5615,672.9844,693.5615,676.9844,703.5615,680.9844,699.5615,676.9844" style="stroke:#454645;stroke-width:1;"/><line style="stroke:#454645;stroke-width:1;stroke-dasharray:2,2;" x1="697.5615" x2="940.4209" y1="676.9844" y2="676.9844"/><text fill="#000000" font-family="sans-serif" font-size="13" lengthAdjust="spacing" textLength="115.9399" x="709.5615" y="671.9185">TokenTransaction</text></g><g class="message" data-participant-1="UC" data-participant-2="Audit"><polygon fill="#454645" points="1675.1157,702.1172,1685.1157,706.1172,1675.1157,710.1172,1679.1157,706.1172" style="stroke:#454645;stroke-width:1;"/><line style="stroke:#454645;stroke-width:1;" x1="692.5615" x2="1681.1157" y1="706.1172" y2="706.1172"/><text fill="#000000" font-family="sans-serif" font-size="13" lengthAdjust="spacing" textLength="243.9404" x="699.5615" y="701.0513">logTaskCompletion(user, task, result)</text></g><g class="message" data-participant-1="UC" data-participant-2="UR"><polygon fill="#454645" points="1292.918,731.25,1302.918,735.25,1292.918,739.25,1296.918,735.25" style="stroke:#454645;stroke-width:1;"/><line style="stroke:#454645;stroke-width:1;" x1="692.5615" x2="1298.918" y1="735.25" y2="735.25"/><text fill="#000000" font-family="sans-serif" font-size="13" lengthAdjust="spacing" textLength="68.9292" x="699.5615" y="730.1841">save(user)</text></g><g class="message" data-participant-1="UR" data-participant-2="UC"><polygon fill="#454645" points="703.5615,760.3828,693.5615,764.3828,703.5615,768.3828,699.5615,764.3828" style="stroke:#454645;stroke-width:1;"/><line style="stroke:#454645;stroke-width:1;stroke-dasharray:2,2;" x1="697.5615" x2="1303.918" y1="764.3828" y2="764.3828"/><text fill="#000000" font-family="sans-serif" font-size="13" lengthAdjust="spacing" textLength="52.3301" x="709.5615" y="759.3169">Success</text></g><g class="message" data-participant-1="UC" data-participant-2="VM"><polygon fill="#454645" points="483.4863,789.5156,473.4863,793.5156,483.4863,797.5156,479.4863,793.5156" style="stroke:#454645;stroke-width:1;"/><line style="stroke:#454645;stroke-width:1;stroke-dasharray:2,2;" x1="477.4863" x2="686.5615" y1="793.5156" y2="793.5156"/><text fill="#000000" font-family="sans-serif" font-size="13" lengthAdjust="spacing" textLength="186.0752" x="489.4863" y="788.4497">Result.Success(newBalance)</text></g><g class="message" data-participant-1="VM" data-participant-2="VM"><line style="stroke:#454645;stroke-width:1;" x1="472.4863" x2="514.4863" y1="822.6484" y2="822.6484"/><line style="stroke:#454645;stroke-width:1;" x1="514.4863" x2="514.4863" y1="822.6484" y2="835.6484"/><line style="stroke:#454645;stroke-width:1;" x1="473.4863" x2="514.4863" y1="835.6484" y2="835.6484"/><polygon fill="#454645" points="483.4863,831.6484,473.4863,835.6484,483.4863,839.6484,479.4863,835.6484" style="stroke:#454645;stroke-width:1;"/><text fill="#000000" font-family="sans-serif" font-size="13" lengthAdjust="spacing" textLength="103.4858" x="479.4863" y="817.5825">updateUiState()</text></g><g class="message" data-participant-1="VM" data-participant-2="UI"><polygon fill="#454645" points="231.603,860.7813,221.603,864.7813,231.603,868.7813,227.603,864.7813" style="stroke:#454645;stroke-width:1;"/><line style="stroke:#454645;stroke-width:1;stroke-dasharray:2,2;" x1="225.603" x2="466.4863" y1="864.7813" y2="864.7813"/><text fill="#000000" font-family="sans-serif" font-size="13" lengthAdjust="spacing" textLength="217.8833" x="237.603" y="859.7153">UiState(newBalance, celebration)</text></g><g class="message" data-participant-1="UI" data-participant-2="UI"><line style="stroke:#454645;stroke-width:1;" x1="220.603" x2="262.603" y1="893.9141" y2="893.9141"/><line style="stroke:#454645;stroke-width:1;" x1="262.603" x2="262.603" y1="893.9141" y2="906.9141"/><line style="stroke:#454645;stroke-width:1;" x1="221.603" x2="262.603" y1="906.9141" y2="906.9141"/><polygon fill="#454645" points="231.603,902.9141,221.603,906.9141,231.603,910.9141,227.603,906.9141" style="stroke:#454645;stroke-width:1;"/><text fill="#000000" font-family="sans-serif" font-size="13" lengthAdjust="spacing" textLength="185.1675" x="227.603" y="888.8481">showCelebrationAnimation()</text></g><!--SRC=[PLHDR-8m4BtxLqovR2BHLRTIjHA7IX0M2Mbx2T3JNbndMYmIE-kFiFpx7Ti943Z5oNlpzUOv3swF3K8dFmnNZZ4dNOqmDsxl3HIwQMjqQ873bji3FC86_tfK0c4f-PVX3MJTZoayFps_F3xzp1dZmcapn7CBatISi9OR9uLigGfCGhA5TqwhFoeBLRH5sAtpIGZPhU_9zbtYyKrNM4VA-zkOyeiRjTK7L3kB1RUOyXJtUI8G3cE8maoAeSCOAl78JLNmMlYQEwdL1aqdHIfH5flxH2NIE99aEAMKvMqRzM71HT_AOWok3FVLaYGNjwLMovjISrz9jpLS9adYAsDAEmJTuR23APM0MV_opSAI-2SejNTI8QngVMIitzRZAqbFt2rlQMyBu-qUjeXkFm4N5AFLoewxi2Z6Y4dyb5ifxSaIDaaCedTDzJ1XH21QNs06cnRvWTpKHpGOB9TIlRyHhbN8CDYkoaBTTPLVIjFY6J53gmNnyHyAxp3p9Fkwci8Tdpp0Y1bQ3QtDeE7cAl_7QHPNVXKHpS6Isr_3WYb8zDl7wB7aYDZR5FmuEXWYn8G62Q7OBtI5DuOc_OqTrba-u7r3X2_bvwUa0kuqeCDyiTwy8R5SzfAp2aU5-YxFv8jqv9rhSfefwK0-2XFjKHnMsaI_HVcIU3aB-3bbX8l0BT5IWqEIVZOShftDU6poMlbmaoBlmlTjHT22rvoMJxFUmB6fgDAkFQCZASZkod9nEr-irRSMxm7nQ_qr5kHgoYcOE4u-Z5DIWELTCX9zBIzrDrwGjMrAF_WqgV6znpA5ntweqOw2-P9POr2QVYStZXuqNu26EpTylMIQWi0QwQySUX-b3NSWtPaOQlVwM5oeSoMRUCZo_m00]--></g></svg>