<svg xmlns="http://www.w3.org/2000/svg" xmlns:xlink="http://www.w3.org/1999/xlink" contentStyleType="text/css" data-diagram-type="SEQUENCE" height="1026px" preserveAspectRatio="none" style="width:1535px;height:1026px;background:#FFFFFF;" version="1.1" viewBox="0 0 1535 1026" width="1535px" zoomAndPan="magnify"><title>Arthur Completes a Task - Sequence Diagram</title><defs/><g><text fill="#000000" font-family="sans-serif" font-size="14" font-weight="bold" lengthAdjust="spacing" textLength="359.3789" x="587.0732" y="27.9951">Arthur Completes a Task - Sequence Diagram</text><g><title>TaskButton</title><rect fill="#FFFFFF" height="692.9219" style="stroke:#696969;stroke-width:1;" width="10" x="287.603" y="184.8594"/></g><g><title>TasksViewModel</title><rect fill="#FFFFFF" height="505.125" style="stroke:#696969;stroke-width:1;" width="10" x="539.4863" y="272.2578"/></g><g><title>EarnTokenUseCase</title><rect fill="#FFFFFF" height="404.7266" style="stroke:#696969;stroke-width:1;" width="10" x="759.5615" y="301.3906"/></g><g><title>Task</title><rect fill="#FFFFFF" height="145.6641" style="stroke:#696969;stroke-width:1;" width="10" x="957.1997" y="330.5234"/></g><g><title>User</title><rect fill="#FFFFFF" height="113.3984" style="stroke:#696969;stroke-width:1;" width="10" x="1013.4209" y="505.3203"/></g><g><title>RewardCalculationService</title><rect fill="#FFFFFF" height="87.3984" style="stroke:#696969;stroke-width:1;" width="10" x="1207.9995" y="359.6563"/></g><g><title>Arthur</title><rect fill="#000000" fill-opacity="0.00000" height="827.4531" width="8" x="107.1621" y="118.5938"/><line style="stroke:#696969;stroke-width:0.5;stroke-dasharray:5.0,5.0;" x1="111" x2="111" y1="118.5938" y2="946.0469"/></g><g><title>TaskButton</title><rect fill="#000000" fill-opacity="0.00000" height="827.4531" width="8" x="288.603" y="118.5938"/><line style="stroke:#696969;stroke-width:0.5;stroke-dasharray:5.0,5.0;" x1="292.0591" x2="292.0591" y1="118.5938" y2="946.0469"/></g><g><title>TasksViewModel</title><rect fill="#000000" fill-opacity="0.00000" height="827.4531" width="8" x="540.4863" y="118.5938"/><line style="stroke:#696969;stroke-width:0.5;stroke-dasharray:5.0,5.0;" x1="543.791" x2="543.791" y1="118.5938" y2="946.0469"/></g><g><title>EarnTokenUseCase</title><rect fill="#000000" fill-opacity="0.00000" height="827.4531" width="8" x="760.5615" y="118.5938"/><line style="stroke:#696969;stroke-width:0.5;stroke-dasharray:5.0,5.0;" x1="763.9712" x2="763.9712" y1="118.5938" y2="946.0469"/></g><g><title>Task</title><rect fill="#000000" fill-opacity="0.00000" height="827.4531" width="8" x="958.1997" y="118.5938"/><line style="stroke:#696969;stroke-width:0.5;stroke-dasharray:5.0,5.0;" x1="961.9336" x2="961.9336" y1="118.5938" y2="946.0469"/></g><g><title>User</title><rect fill="#000000" fill-opacity="0.00000" height="827.4531" width="8" x="1014.4209" y="118.5938"/><line style="stroke:#696969;stroke-width:0.5;stroke-dasharray:5.0,5.0;" x1="1017.4658" x2="1017.4658" y1="118.5938" y2="946.0469"/></g><g><title>RewardCalculationService</title><rect fill="#000000" fill-opacity="0.00000" height="827.4531" width="8" x="1208.9995" y="118.5938"/><line style="stroke:#696969;stroke-width:0.5;stroke-dasharray:5.0,5.0;" x1="1212.5723" x2="1212.5723" y1="118.5938" y2="946.0469"/></g><g><title>UserRepository</title><rect fill="#000000" fill-opacity="0.00000" height="827.4531" width="8" x="1377.918" y="118.5938"/><line style="stroke:#696969;stroke-width:0.5;stroke-dasharray:5.0,5.0;" x1="1381.4268" x2="1381.4268" y1="118.5938" y2="946.0469"/></g><g><title>TalkBack</title><rect fill="#000000" fill-opacity="0.00000" height="827.4531" width="8" x="1486.9673" y="118.5938"/><line style="stroke:#696969;stroke-width:0.5;stroke-dasharray:5.0,5.0;" x1="1490.4092" x2="1490.4092" y1="118.5938" y2="946.0469"/></g><g class="participant participant-head" data-participant="Arthur"><text fill="#454645" font-family="sans-serif" font-size="14" lengthAdjust="spacing" textLength="44.3242" x="86" y="115.292">Arthur</text><ellipse cx="111.1621" cy="50.7969" fill="#454645" rx="8" ry="8" style="stroke:#454645;stroke-width:0.5;"/><path d="M111.1621,58.7969 L111.1621,85.7969 M98.1621,66.7969 L124.1621,66.7969 M111.1621,85.7969 L98.1621,100.7969 M111.1621,85.7969 L124.1621,100.7969" fill="none" style="stroke:#454645;stroke-width:0.5;"/></g><g class="participant participant-tail" data-participant="Arthur"><text fill="#454645" font-family="sans-serif" font-size="14" lengthAdjust="spacing" textLength="44.3242" x="86" y="958.042">Arthur</text><ellipse cx="111.1621" cy="969.8438" fill="#454645" rx="8" ry="8" style="stroke:#454645;stroke-width:0.5;"/><path d="M111.1621,977.8438 L111.1621,1004.8438 M98.1621,985.8438 L124.1621,985.8438 M111.1621,1004.8438 L98.1621,1019.8438 M111.1621,1004.8438 L124.1621,1019.8438" fill="none" style="stroke:#454645;stroke-width:0.5;"/></g><g class="participant participant-head" data-participant="UI"><rect fill="#FF6347" height="46.5938" rx="3.5" ry="3.5" style="stroke:#454645;stroke-width:1.5;" width="109.0879" x="238.0591" y="71"/><text fill="#FFFFFF" font-family="sans-serif" font-size="14" lengthAdjust="spacing" textLength="79.4268" x="252.8896" y="90.9951">TaskButton</text><text fill="#FFFFFF" font-family="sans-serif" font-size="14" lengthAdjust="spacing" textLength="95.0879" x="245.0591" y="107.292">(Compose UI)</text></g><g class="participant participant-tail" data-participant="UI"><rect fill="#FF6347" height="46.5938" rx="3.5" ry="3.5" style="stroke:#454645;stroke-width:1.5;" width="109.0879" x="238.0591" y="945.0469"/><text fill="#FFFFFF" font-family="sans-serif" font-size="14" lengthAdjust="spacing" textLength="79.4268" x="252.8896" y="965.042">TaskButton</text><text fill="#FFFFFF" font-family="sans-serif" font-size="14" lengthAdjust="spacing" textLength="95.0879" x="245.0591" y="981.3389">(Compose UI)</text></g><g class="participant participant-head" data-participant="VM"><rect fill="#FF6347" height="30.2969" rx="3.5" ry="3.5" style="stroke:#454645;stroke-width:1.5;" width="129.3906" x="479.791" y="87.2969"/><text fill="#FFFFFF" font-family="sans-serif" font-size="14" lengthAdjust="spacing" textLength="115.3906" x="486.791" y="107.292">TasksViewModel</text></g><g class="participant participant-tail" data-participant="VM"><rect fill="#FF6347" height="30.2969" rx="3.5" ry="3.5" style="stroke:#454645;stroke-width:1.5;" width="129.3906" x="479.791" y="945.0469"/><text fill="#FFFFFF" font-family="sans-serif" font-size="14" lengthAdjust="spacing" textLength="115.3906" x="486.791" y="965.042">TasksViewModel</text></g><g class="participant participant-head" data-participant="UC"><rect fill="#FF6347" height="30.2969" rx="3.5" ry="3.5" style="stroke:#454645;stroke-width:1.5;" width="149.1807" x="689.9712" y="87.2969"/><text fill="#FFFFFF" font-family="sans-serif" font-size="14" lengthAdjust="spacing" textLength="135.1807" x="696.9712" y="107.292">EarnTokenUseCase</text></g><g class="participant participant-tail" data-participant="UC"><rect fill="#FF6347" height="30.2969" rx="3.5" ry="3.5" style="stroke:#454645;stroke-width:1.5;" width="149.1807" x="689.9712" y="945.0469"/><text fill="#FFFFFF" font-family="sans-serif" font-size="14" lengthAdjust="spacing" textLength="135.1807" x="696.9712" y="965.042">EarnTokenUseCase</text></g><g class="participant participant-head" data-participant="Task"><rect fill="#FF6347" height="30.2969" rx="3.5" ry="3.5" style="stroke:#454645;stroke-width:1.5;" width="46.5322" x="938.9336" y="87.2969"/><text fill="#FFFFFF" font-family="sans-serif" font-size="14" lengthAdjust="spacing" textLength="32.5322" x="945.9336" y="107.292">Task</text></g><g class="participant participant-tail" data-participant="Task"><rect fill="#FF6347" height="30.2969" rx="3.5" ry="3.5" style="stroke:#454645;stroke-width:1.5;" width="46.5322" x="938.9336" y="945.0469"/><text fill="#FFFFFF" font-family="sans-serif" font-size="14" lengthAdjust="spacing" textLength="32.5322" x="945.9336" y="965.042">Task</text></g><g class="participant participant-head" data-participant="User"><rect fill="#FF6347" height="30.2969" rx="3.5" ry="3.5" style="stroke:#454645;stroke-width:1.5;" width="45.9102" x="995.4658" y="87.2969"/><text fill="#FFFFFF" font-family="sans-serif" font-size="14" lengthAdjust="spacing" textLength="31.9102" x="1002.4658" y="107.292">User</text></g><g class="participant participant-tail" data-participant="User"><rect fill="#FF6347" height="30.2969" rx="3.5" ry="3.5" style="stroke:#454645;stroke-width:1.5;" width="45.9102" x="995.4658" y="945.0469"/><text fill="#FFFFFF" font-family="sans-serif" font-size="14" lengthAdjust="spacing" textLength="31.9102" x="1002.4658" y="965.042">User</text></g><g class="participant participant-head" data-participant="RCS"><rect fill="#FF6347" height="30.2969" rx="3.5" ry="3.5" style="stroke:#454645;stroke-width:1.5;" width="196.8545" x="1114.5723" y="87.2969"/><text fill="#FFFFFF" font-family="sans-serif" font-size="14" lengthAdjust="spacing" textLength="182.8545" x="1121.5723" y="107.292">RewardCalculationService</text></g><g class="participant participant-tail" data-participant="RCS"><rect fill="#FF6347" height="30.2969" rx="3.5" ry="3.5" style="stroke:#454645;stroke-width:1.5;" width="196.8545" x="1114.5723" y="945.0469"/><text fill="#FFFFFF" font-family="sans-serif" font-size="14" lengthAdjust="spacing" textLength="182.8545" x="1121.5723" y="965.042">RewardCalculationService</text></g><g class="participant participant-head" data-participant="UR"><rect fill="#FF6347" height="30.2969" rx="3.5" ry="3.5" style="stroke:#454645;stroke-width:1.5;" width="120.9824" x="1321.4268" y="87.2969"/><text fill="#FFFFFF" font-family="sans-serif" font-size="14" lengthAdjust="spacing" textLength="106.9824" x="1328.4268" y="107.292">UserRepository</text></g><g class="participant participant-tail" data-participant="UR"><rect fill="#FF6347" height="30.2969" rx="3.5" ry="3.5" style="stroke:#454645;stroke-width:1.5;" width="120.9824" x="1321.4268" y="945.0469"/><text fill="#FFFFFF" font-family="sans-serif" font-size="14" lengthAdjust="spacing" textLength="106.9824" x="1328.4268" y="965.042">UserRepository</text></g><g class="participant participant-head" data-participant="TB"><rect fill="#FF6347" height="30.2969" rx="3.5" ry="3.5" style="stroke:#454645;stroke-width:1.5;" width="77.1162" x="1452.4092" y="87.2969"/><text fill="#FFFFFF" font-family="sans-serif" font-size="14" lengthAdjust="spacing" textLength="63.1162" x="1459.4092" y="107.292">TalkBack</text></g><g class="participant participant-tail" data-participant="TB"><rect fill="#FF6347" height="30.2969" rx="3.5" ry="3.5" style="stroke:#454645;stroke-width:1.5;" width="77.1162" x="1452.4092" y="945.0469"/><text fill="#FFFFFF" font-family="sans-serif" font-size="14" lengthAdjust="spacing" textLength="63.1162" x="1459.4092" y="965.042">TalkBack</text></g><g><title>TaskButton</title><rect fill="#FFFFFF" height="692.9219" style="stroke:#696969;stroke-width:1;" width="10" x="287.603" y="184.8594"/></g><g><title>TasksViewModel</title><rect fill="#FFFFFF" height="505.125" style="stroke:#696969;stroke-width:1;" width="10" x="539.4863" y="272.2578"/></g><g><title>EarnTokenUseCase</title><rect fill="#FFFFFF" height="404.7266" style="stroke:#696969;stroke-width:1;" width="10" x="759.5615" y="301.3906"/></g><g><title>Task</title><rect fill="#FFFFFF" height="145.6641" style="stroke:#696969;stroke-width:1;" width="10" x="957.1997" y="330.5234"/></g><g><title>User</title><rect fill="#FFFFFF" height="113.3984" style="stroke:#696969;stroke-width:1;" width="10" x="1013.4209" y="505.3203"/></g><g><title>RewardCalculationService</title><rect fill="#FFFFFF" height="87.3984" style="stroke:#696969;stroke-width:1;" width="10" x="1207.9995" y="359.6563"/></g><path d="M81,137.0938 L81,155.0938 A3.5,3.5 0 0 0 84.5,158.5938 L1515.5,158.5938 A3.5,3.5 0 0 0 1519,155.0938 L1519,143.5938 L1509,133.5938 L84.5,133.5938 A3.5,3.5 0 0 0 81,137.0938" fill="#7FFFD4" style="stroke:#454645;stroke-width:1.5;"/><path d="M1509,133.5938 L1509,141.8438 A1.75,1.75 0 0 0 1510.75,143.5938 L1519,143.5938 L1509,133.5938" fill="#7FFFD4" style="stroke:#454645;stroke-width:1.5;"/><text fill="#454645" font-family="sans-serif" font-size="13" lengthAdjust="spacing" textLength="176.6426" x="707.4414" y="150.6606">Arthur's Daily Routine Flow</text><g class="message" data-participant-1="Arthur" data-participant-2="UI"><polygon fill="#454645" points="275.603,180.8594,285.603,184.8594,275.603,188.8594,279.603,184.8594" style="stroke:#454645;stroke-width:1;"/><line style="stroke:#454645;stroke-width:1;" x1="111.1621" x2="281.603" y1="184.8594" y2="184.8594"/><text fill="#000000" font-family="sans-serif" font-size="13" lengthAdjust="spacing" textLength="157.4409" x="118.1621" y="179.7935">Taps "Brush Teeth" task</text></g><g class="message" data-participant-1="UI" data-participant-2="TB"><polygon fill="#454645" points="1478.9673,209.9922,1488.9673,213.9922,1478.9673,217.9922,1482.9673,213.9922" style="stroke:#454645;stroke-width:1;"/><line style="stroke:#454645;stroke-width:1;" x1="297.603" x2="1484.9673" y1="213.9922" y2="213.9922"/><text fill="#000000" font-family="sans-serif" font-size="13" lengthAdjust="spacing" textLength="196.3394" x="304.603" y="208.9263">Announces "Task completed!"</text></g><g class="message" data-participant-1="TB" data-participant-2="Arthur"><polygon fill="#454645" points="122.1621,239.125,112.1621,243.125,122.1621,247.125,118.1621,243.125" style="stroke:#454645;stroke-width:1;"/><line style="stroke:#454645;stroke-width:1;" x1="116.1621" x2="1489.9673" y1="243.125" y2="243.125"/><text fill="#000000" font-family="sans-serif" font-size="13" lengthAdjust="spacing" textLength="148.9224" x="128.1621" y="238.0591">Speaks announcement</text></g><g class="message" data-participant-1="UI" data-participant-2="VM"><polygon fill="#454645" points="527.4863,268.2578,537.4863,272.2578,527.4863,276.2578,531.4863,272.2578" style="stroke:#454645;stroke-width:1;"/><line style="stroke:#454645;stroke-width:1;" x1="297.603" x2="533.4863" y1="272.2578" y2="272.2578"/><text fill="#000000" font-family="sans-serif" font-size="13" lengthAdjust="spacing" textLength="166.8989" x="304.603" y="267.1919">onTaskCompleted(taskId)</text></g><g class="message" data-participant-1="VM" data-participant-2="UC"><polygon fill="#454645" points="747.5615,297.3906,757.5615,301.3906,747.5615,305.3906,751.5615,301.3906" style="stroke:#454645;stroke-width:1;"/><line style="stroke:#454645;stroke-width:1;" x1="549.4863" x2="753.5615" y1="301.3906" y2="301.3906"/><text fill="#000000" font-family="sans-serif" font-size="13" lengthAdjust="spacing" textLength="150.4712" x="556.4863" y="296.3247">execute(userId, taskId)</text></g><g class="message" data-participant-1="UC" data-participant-2="Task"><polygon fill="#454645" points="945.1997,326.5234,955.1997,330.5234,945.1997,334.5234,949.1997,330.5234" style="stroke:#454645;stroke-width:1;"/><line style="stroke:#454645;stroke-width:1;" x1="769.5615" x2="951.1997" y1="330.5234" y2="330.5234"/><text fill="#000000" font-family="sans-serif" font-size="13" lengthAdjust="spacing" textLength="168.6382" x="776.5615" y="325.4575">markCompleted(by: User)</text></g><g class="message" data-participant-1="Task" data-participant-2="RCS"><polygon fill="#454645" points="1195.9995,355.6563,1205.9995,359.6563,1195.9995,363.6563,1199.9995,359.6563" style="stroke:#454645;stroke-width:1;"/><line style="stroke:#454645;stroke-width:1;" x1="967.1997" x2="1201.9995" y1="359.6563" y2="359.6563"/><text fill="#000000" font-family="sans-serif" font-size="13" lengthAdjust="spacing" textLength="221.7998" x="974.1997" y="354.5903">calculateTokenReward(task, user)</text></g><g class="message" data-participant-1="RCS" data-participant-2="User"><polygon fill="#454645" points="1029.4209,384.7891,1019.4209,388.7891,1029.4209,392.7891,1025.4209,388.7891" style="stroke:#454645;stroke-width:1;"/><line style="stroke:#454645;stroke-width:1;" x1="1023.4209" x2="1206.9995" y1="388.7891" y2="388.7891"/><text fill="#000000" font-family="sans-serif" font-size="13" lengthAdjust="spacing" textLength="115.375" x="1035.4209" y="383.7231">getCurrentLevel()</text></g><g class="message" data-participant-1="RCS" data-participant-2="Task"><polygon fill="#454645" points="978.1997,413.9219,968.1997,417.9219,978.1997,421.9219,974.1997,417.9219" style="stroke:#454645;stroke-width:1;"/><line style="stroke:#454645;stroke-width:1;" x1="972.1997" x2="1206.9995" y1="417.9219" y2="417.9219"/><text fill="#000000" font-family="sans-serif" font-size="13" lengthAdjust="spacing" textLength="89.667" x="984.1997" y="412.856">getDifficulty()</text></g><g class="message" data-participant-1="RCS" data-participant-2="UC"><polygon fill="#454645" points="780.5615,443.0547,770.5615,447.0547,780.5615,451.0547,776.5615,447.0547" style="stroke:#454645;stroke-width:1;"/><line style="stroke:#454645;stroke-width:1;stroke-dasharray:2.0,2.0;" x1="774.5615" x2="1211.9995" y1="447.0547" y2="447.0547"/><text fill="#000000" font-family="sans-serif" font-size="13" lengthAdjust="spacing" textLength="109.1606" x="786.5615" y="441.9888">TokenAmount(5)</text></g><g class="message" data-participant-1="Task" data-participant-2="UC"><polygon fill="#454645" points="780.5615,472.1875,770.5615,476.1875,780.5615,480.1875,776.5615,476.1875" style="stroke:#454645;stroke-width:1;"/><line style="stroke:#454645;stroke-width:1;stroke-dasharray:2.0,2.0;" x1="774.5615" x2="961.1997" y1="476.1875" y2="476.1875"/><text fill="#000000" font-family="sans-serif" font-size="13" lengthAdjust="spacing" textLength="104.6665" x="786.5615" y="471.1216">TaskCompletion</text></g><g class="message" data-participant-1="UC" data-participant-2="User"><polygon fill="#454645" points="1001.4209,501.3203,1011.4209,505.3203,1001.4209,509.3203,1005.4209,505.3203" style="stroke:#454645;stroke-width:1;"/><line style="stroke:#454645;stroke-width:1;" x1="769.5615" x2="1007.4209" y1="505.3203" y2="505.3203"/><text fill="#000000" font-family="sans-serif" font-size="13" lengthAdjust="spacing" textLength="136.2842" x="776.5615" y="500.2544">earnTokens(amount)</text></g><g class="message" data-participant-1="User" data-participant-2="User"><line style="stroke:#454645;stroke-width:1;" x1="1023.4209" x2="1065.4209" y1="534.4531" y2="534.4531"/><line style="stroke:#454645;stroke-width:1;" x1="1065.4209" x2="1065.4209" y1="534.4531" y2="547.4531"/><line style="stroke:#454645;stroke-width:1;" x1="1024.4209" x2="1065.4209" y1="547.4531" y2="547.4531"/><polygon fill="#454645" points="1034.4209,543.4531,1024.4209,547.4531,1034.4209,551.4531,1030.4209,547.4531" style="stroke:#454645;stroke-width:1;"/><text fill="#000000" font-family="sans-serif" font-size="13" lengthAdjust="spacing" textLength="107.7959" x="1030.4209" y="529.3872">updateBalance()</text></g><g class="message" data-participant-1="User" data-participant-2="User"><line style="stroke:#454645;stroke-width:1;" x1="1023.4209" x2="1065.4209" y1="576.5859" y2="576.5859"/><line style="stroke:#454645;stroke-width:1;" x1="1065.4209" x2="1065.4209" y1="576.5859" y2="589.5859"/><line style="stroke:#454645;stroke-width:1;" x1="1024.4209" x2="1065.4209" y1="589.5859" y2="589.5859"/><polygon fill="#454645" points="1034.4209,585.5859,1024.4209,589.5859,1034.4209,593.5859,1030.4209,589.5859" style="stroke:#454645;stroke-width:1;"/><text fill="#000000" font-family="sans-serif" font-size="13" lengthAdjust="spacing" textLength="100.5151" x="1030.4209" y="571.52">checkLevelUp()</text></g><g class="message" data-participant-1="User" data-participant-2="UC"><polygon fill="#454645" points="780.5615,614.7188,770.5615,618.7188,780.5615,622.7188,776.5615,618.7188" style="stroke:#454645;stroke-width:1;"/><line style="stroke:#454645;stroke-width:1;stroke-dasharray:2.0,2.0;" x1="774.5615" x2="1017.4209" y1="618.7188" y2="618.7188"/><text fill="#000000" font-family="sans-serif" font-size="13" lengthAdjust="spacing" textLength="115.9399" x="786.5615" y="613.6528">TokenTransaction</text></g><g class="message" data-participant-1="UC" data-participant-2="UR"><polygon fill="#454645" points="1369.918,643.8516,1379.918,647.8516,1369.918,651.8516,1373.918,647.8516" style="stroke:#454645;stroke-width:1;"/><line style="stroke:#454645;stroke-width:1;" x1="769.5615" x2="1375.918" y1="647.8516" y2="647.8516"/><text fill="#000000" font-family="sans-serif" font-size="13" lengthAdjust="spacing" textLength="68.9292" x="776.5615" y="642.7856">save(user)</text></g><g class="message" data-participant-1="UR" data-participant-2="UC"><polygon fill="#454645" points="780.5615,672.9844,770.5615,676.9844,780.5615,680.9844,776.5615,676.9844" style="stroke:#454645;stroke-width:1;"/><line style="stroke:#454645;stroke-width:1;stroke-dasharray:2.0,2.0;" x1="774.5615" x2="1380.918" y1="676.9844" y2="676.9844"/><text fill="#000000" font-family="sans-serif" font-size="13" lengthAdjust="spacing" textLength="52.3301" x="786.5615" y="671.9185">Success</text></g><g class="message" data-participant-1="UC" data-participant-2="VM"><polygon fill="#454645" points="560.4863,702.1172,550.4863,706.1172,560.4863,710.1172,556.4863,706.1172" style="stroke:#454645;stroke-width:1;"/><line style="stroke:#454645;stroke-width:1;stroke-dasharray:2.0,2.0;" x1="554.4863" x2="763.5615" y1="706.1172" y2="706.1172"/><text fill="#000000" font-family="sans-serif" font-size="13" lengthAdjust="spacing" textLength="186.0752" x="566.4863" y="701.0513">Result.Success(newBalance)</text></g><g class="message" data-participant-1="VM" data-participant-2="VM"><line style="stroke:#454645;stroke-width:1;" x1="549.4863" x2="591.4863" y1="735.25" y2="735.25"/><line style="stroke:#454645;stroke-width:1;" x1="591.4863" x2="591.4863" y1="735.25" y2="748.25"/><line style="stroke:#454645;stroke-width:1;" x1="550.4863" x2="591.4863" y1="748.25" y2="748.25"/><polygon fill="#454645" points="560.4863,744.25,550.4863,748.25,560.4863,752.25,556.4863,748.25" style="stroke:#454645;stroke-width:1;"/><text fill="#000000" font-family="sans-serif" font-size="13" lengthAdjust="spacing" textLength="103.4858" x="556.4863" y="730.1841">updateUiState()</text></g><g class="message" data-participant-1="VM" data-participant-2="UI"><polygon fill="#454645" points="308.603,773.3828,298.603,777.3828,308.603,781.3828,304.603,777.3828" style="stroke:#454645;stroke-width:1;"/><line style="stroke:#454645;stroke-width:1;stroke-dasharray:2.0,2.0;" x1="302.603" x2="543.4863" y1="777.3828" y2="777.3828"/><text fill="#000000" font-family="sans-serif" font-size="13" lengthAdjust="spacing" textLength="217.8833" x="314.603" y="772.3169">UiState(newBalance, celebration)</text></g><g class="message" data-participant-1="UI" data-participant-2="UI"><line style="stroke:#454645;stroke-width:1;" x1="297.603" x2="339.603" y1="806.5156" y2="806.5156"/><line style="stroke:#454645;stroke-width:1;" x1="339.603" x2="339.603" y1="806.5156" y2="819.5156"/><line style="stroke:#454645;stroke-width:1;" x1="298.603" x2="339.603" y1="819.5156" y2="819.5156"/><polygon fill="#454645" points="308.603,815.5156,298.603,819.5156,308.603,823.5156,304.603,819.5156" style="stroke:#454645;stroke-width:1;"/><text fill="#000000" font-family="sans-serif" font-size="13" lengthAdjust="spacing" textLength="185.1675" x="304.603" y="801.4497">showCelebrationAnimation()</text></g><g class="message" data-participant-1="UI" data-participant-2="TB"><polygon fill="#454645" points="1478.9673,844.6484,1488.9673,848.6484,1478.9673,852.6484,1482.9673,848.6484" style="stroke:#454645;stroke-width:1;"/><line style="stroke:#454645;stroke-width:1;" x1="297.603" x2="1484.9673" y1="848.6484" y2="848.6484"/><text fill="#000000" font-family="sans-serif" font-size="13" lengthAdjust="spacing" textLength="232.394" x="304.603" y="843.5825">"You earned 5 tokens! Balance: 23"</text></g><g class="message" data-participant-1="TB" data-participant-2="Arthur"><polygon fill="#454645" points="122.1621,873.7813,112.1621,877.7813,122.1621,881.7813,118.1621,877.7813" style="stroke:#454645;stroke-width:1;"/><line style="stroke:#454645;stroke-width:1;" x1="116.1621" x2="1489.9673" y1="877.7813" y2="877.7813"/><text fill="#000000" font-family="sans-serif" font-size="13" lengthAdjust="spacing" textLength="137.6553" x="128.1621" y="872.7153">Speaks token update</text></g><path d="M5,894.2813 L5,927.2813 A3.5,3.5 0 0 0 8.5,930.7813 L213.5,930.7813 A3.5,3.5 0 0 0 217,927.2813 L217,900.7813 L207,890.7813 L8.5,890.7813 A3.5,3.5 0 0 0 5,894.2813" fill="#7FFFD4" style="stroke:#454645;stroke-width:1.5;"/><path d="M207,890.7813 L207,899.0313 A1.75,1.75 0 0 0 208.75,900.7813 L217,900.7813 L207,890.7813" fill="#7FFFD4" style="stroke:#454645;stroke-width:1.5;"/><text fill="#454645" font-family="sans-serif" font-size="13" lengthAdjust="spacing" textLength="180.7114" x="11" y="907.8481">Arthur sees visual feedback</text><text fill="#454645" font-family="sans-serif" font-size="13" lengthAdjust="spacing" textLength="191.604" x="11" y="922.981">and hears audio confirmation</text><!--SRC=[TLHDRzim3BthLx2-p07I7JRqaaE1njs00El5IGeCw4MncLg8BNdwS9P_F-h3TTnWfoZcu-FZ8wKxss27C8Y3vj8oPeLj4PwqRPo6GdLzYnODSDXnSu9xsE8VXx92U1RyNVEECLvPfSSCRY2BnuprN5jHYPvu8VFfQsUjacyozxpA8EmtYyodx3UtOFCgyFoYQcm3vFLb3ld1jTof4ygzmO8RZ3p5BKy8-CCyH6awvj1X7Yhnp7LTyBPoBRT2oItgGLInH5biRubAf7O4sN29bELd6UrfpQiaPSsOL1P13JZQjgIli4f_lXXuvgAzGAcS5HBXPwlEZ2M3xn_9BSBkU4zMhxKp3UmGRPE1zKtIDCJ0hVUMCK8IFd9BgHpDpKHNe4gZhUyoHW22fG8hsFR8JpJobD6Xtuj8zVf2SIKzmxWRTUxhRkh5L9fcnGZffHQ4nxzOEOkv8wSszH9ky3GsHaWlrKjRGSVr5V_XiWfJkie8ysHn9H_zJ2YfIWF3i1PnY47R4jmysy_GvtY15A7STxI5qvew_OK3jlbYZ2T157yMnwEW0lOoHiV-GhsdZioo-SE2rJWhb5H-W2VhQBEkmR6dw4EIXUEIcvm7_clJ_Du6t8HtVKsXDMyvpOraVWfN3LQdqE2-_uZEkjZH8s1yYRcqK6kKLXBOy27EarZAYMFhAjem4w7ZkfHeoBMlAPPBF2U1Cwly3iIT2KcnaxtOMleXhJuqhlxuTM9QGeKjqWlcXSze_Ih6rGsffb7dOe8-IT65WtTZkYlPR-M2zrZ30zWmW3j8jLRmxVl_hao09krirjtczj9_N7WmIDTo4CRn5ew8zO7UYZV9PGqDgQ2Rw6gXwCRAez1Hxpy0]--></g></svg>