<svg xmlns="http://www.w3.org/2000/svg" xmlns:xlink="http://www.w3.org/1999/xlink" contentStyleType="text/css" data-diagram-type="SEQUENCE" height="1005px" preserveAspectRatio="none" style="width:1735px;height:1005px;background:#FFFFFF;" version="1.1" viewBox="0 0 1735 1005" width="1735px" zoomAndPan="magnify"><title>Lemmy Completes a Task - Sequence Diagram (v1, 2025-07)</title><defs/><g><text fill="#000000" font-family="sans-serif" font-size="14" font-weight="bold" lengthAdjust="spacing" textLength="475.8154" x="628.908" y="27.9951">Lemmy Completes a Task - Sequence Diagram (v1, 2025-07)</text><g><title>TaskButton</title><rect fill="#FFFFFF" height="731.0547" style="stroke:#696969;stroke-width:1;" width="10" x="212.4277" y="184.8594"/></g><g><title>TasksViewModel</title><rect fill="#FFFFFF" height="592.5234" style="stroke:#696969;stroke-width:1;" width="10" x="464.311" y="272.2578"/></g><g><title>EarnTokenUseCase</title><rect fill="#FFFFFF" height="492.125" style="stroke:#696969;stroke-width:1;" width="10" x="684.3862" y="301.3906"/></g><g><title>Task</title><rect fill="#FFFFFF" height="145.6641" style="stroke:#696969;stroke-width:1;" width="10" x="882.0244" y="330.5234"/></g><g><title>User</title><rect fill="#FFFFFF" height="113.3984" style="stroke:#696969;stroke-width:1;" width="10" x="938.2456" y="563.5859"/></g><g><title>RewardCalculationService</title><rect fill="#FFFFFF" height="87.3984" style="stroke:#696969;stroke-width:1;" width="10" x="1132.8242" y="359.6563"/></g><g><title>Lemmy</title><rect fill="#000000" fill-opacity="0.00000" height="806.3203" width="8" x="31.9868" y="118.5938"/><line style="stroke:#696969;stroke-width:0.5;stroke-dasharray:5,5;" x1="35" x2="35" y1="118.5938" y2="924.9141"/></g><g><title>TaskButton</title><rect fill="#000000" fill-opacity="0.00000" height="806.3203" width="8" x="213.4277" y="118.5938"/><line style="stroke:#696969;stroke-width:0.5;stroke-dasharray:5,5;" x1="216.8838" x2="216.8838" y1="118.5938" y2="924.9141"/></g><g><title>TasksViewModel</title><rect fill="#000000" fill-opacity="0.00000" height="806.3203" width="8" x="465.311" y="118.5938"/><line style="stroke:#696969;stroke-width:0.5;stroke-dasharray:5,5;" x1="468.6157" x2="468.6157" y1="118.5938" y2="924.9141"/></g><g><title>EarnTokenUseCase</title><rect fill="#000000" fill-opacity="0.00000" height="806.3203" width="8" x="685.3862" y="118.5938"/><line style="stroke:#696969;stroke-width:0.5;stroke-dasharray:5,5;" x1="688.7959" x2="688.7959" y1="118.5938" y2="924.9141"/></g><g><title>Task</title><rect fill="#000000" fill-opacity="0.00000" height="806.3203" width="8" x="883.0244" y="118.5938"/><line style="stroke:#696969;stroke-width:0.5;stroke-dasharray:5,5;" x1="886.7583" x2="886.7583" y1="118.5938" y2="924.9141"/></g><g><title>User</title><rect fill="#000000" fill-opacity="0.00000" height="806.3203" width="8" x="939.2456" y="118.5938"/><line style="stroke:#696969;stroke-width:0.5;stroke-dasharray:5,5;" x1="942.2905" x2="942.2905" y1="118.5938" y2="924.9141"/></g><g><title>RewardCalculationService</title><rect fill="#000000" fill-opacity="0.00000" height="806.3203" width="8" x="1133.8242" y="118.5938"/><line style="stroke:#696969;stroke-width:0.5;stroke-dasharray:5,5;" x1="1137.397" x2="1137.397" y1="118.5938" y2="924.9141"/></g><g><title>UserRepository</title><rect fill="#000000" fill-opacity="0.00000" height="806.3203" width="8" x="1302.7427" y="118.5938"/><line style="stroke:#696969;stroke-width:0.5;stroke-dasharray:5,5;" x1="1306.2515" x2="1306.2515" y1="118.5938" y2="924.9141"/></g><g><title>TalkBack</title><rect fill="#000000" fill-opacity="0.00000" height="806.3203" width="8" x="1411.792" y="118.5938"/><line style="stroke:#696969;stroke-width:0.5;stroke-dasharray:5,5;" x1="1415.2339" x2="1415.2339" y1="118.5938" y2="924.9141"/></g><g><title>FraudDetectionService</title><rect fill="#000000" fill-opacity="0.00000" height="806.3203" width="8" x="1547.2998" y="118.5938"/><line style="stroke:#696969;stroke-width:0.5;stroke-dasharray:5,5;" x1="1550.3501" x2="1550.3501" y1="118.5938" y2="924.9141"/></g><g><title>AuditTrail</title><rect fill="#000000" fill-opacity="0.00000" height="806.3203" width="8" x="1684.9404" y="118.5938"/><line style="stroke:#696969;stroke-width:0.5;stroke-dasharray:5,5;" x1="1688.2495" x2="1688.2495" y1="118.5938" y2="924.9141"/></g><g class="participant participant-head" data-participant="Lemmy"><text fill="#454645" font-family="sans-serif" font-size="14" lengthAdjust="spacing" textLength="51.9736" x="7" y="115.292">Lemmy</text><ellipse cx="35.9868" cy="50.7969" fill="#454645" rx="8" ry="8" style="stroke:#454645;stroke-width:0.5;"/><path d="M35.9868,58.7969 L35.9868,85.7969 M22.9868,66.7969 L48.9868,66.7969 M35.9868,85.7969 L22.9868,100.7969 M35.9868,85.7969 L48.9868,100.7969" fill="none" style="stroke:#454645;stroke-width:0.5;"/></g><g class="participant participant-tail" data-participant="Lemmy"><text fill="#454645" font-family="sans-serif" font-size="14" lengthAdjust="spacing" textLength="51.9736" x="7" y="936.9092">Lemmy</text><ellipse cx="35.9868" cy="948.7109" fill="#454645" rx="8" ry="8" style="stroke:#454645;stroke-width:0.5;"/><path d="M35.9868,956.7109 L35.9868,983.7109 M22.9868,964.7109 L48.9868,964.7109 M35.9868,983.7109 L22.9868,998.7109 M35.9868,983.7109 L48.9868,998.7109" fill="none" style="stroke:#454645;stroke-width:0.5;"/></g><g class="participant participant-head" data-participant="UI"><rect fill="#FF6347" height="46.5938" rx="3.5" ry="3.5" style="stroke:#454645;stroke-width:1.5;" width="109.0879" x="162.8838" y="71"/><text fill="#FFFFFF" font-family="sans-serif" font-size="14" lengthAdjust="spacing" textLength="79.4268" x="177.7144" y="90.9951">TaskButton</text><text fill="#FFFFFF" font-family="sans-serif" font-size="14" lengthAdjust="spacing" textLength="95.0879" x="169.8838" y="107.292">(Compose UI)</text></g><g class="participant participant-tail" data-participant="UI"><rect fill="#FF6347" height="46.5938" rx="3.5" ry="3.5" style="stroke:#454645;stroke-width:1.5;" width="109.0879" x="162.8838" y="923.9141"/><text fill="#FFFFFF" font-family="sans-serif" font-size="14" lengthAdjust="spacing" textLength="79.4268" x="177.7144" y="943.9092">TaskButton</text><text fill="#FFFFFF" font-family="sans-serif" font-size="14" lengthAdjust="spacing" textLength="95.0879" x="169.8838" y="960.2061">(Compose UI)</text></g><g class="participant participant-head" data-participant="VM"><rect fill="#FF6347" height="30.2969" rx="3.5" ry="3.5" style="stroke:#454645;stroke-width:1.5;" width="129.3906" x="404.6157" y="87.2969"/><text fill="#FFFFFF" font-family="sans-serif" font-size="14" lengthAdjust="spacing" textLength="115.3906" x="411.6157" y="107.292">TasksViewModel</text></g><g class="participant participant-tail" data-participant="VM"><rect fill="#FF6347" height="30.2969" rx="3.5" ry="3.5" style="stroke:#454645;stroke-width:1.5;" width="129.3906" x="404.6157" y="923.9141"/><text fill="#FFFFFF" font-family="sans-serif" font-size="14" lengthAdjust="spacing" textLength="115.3906" x="411.6157" y="943.9092">TasksViewModel</text></g><g class="participant participant-head" data-participant="UC"><rect fill="#FF6347" height="30.2969" rx="3.5" ry="3.5" style="stroke:#454645;stroke-width:1.5;" width="149.1807" x="614.7959" y="87.2969"/><text fill="#FFFFFF" font-family="sans-serif" font-size="14" lengthAdjust="spacing" textLength="135.1807" x="621.7959" y="107.292">EarnTokenUseCase</text></g><g class="participant participant-tail" data-participant="UC"><rect fill="#FF6347" height="30.2969" rx="3.5" ry="3.5" style="stroke:#454645;stroke-width:1.5;" width="149.1807" x="614.7959" y="923.9141"/><text fill="#FFFFFF" font-family="sans-serif" font-size="14" lengthAdjust="spacing" textLength="135.1807" x="621.7959" y="943.9092">EarnTokenUseCase</text></g><g class="participant participant-head" data-participant="Task"><rect fill="#FF6347" height="30.2969" rx="3.5" ry="3.5" style="stroke:#454645;stroke-width:1.5;" width="46.5322" x="863.7583" y="87.2969"/><text fill="#FFFFFF" font-family="sans-serif" font-size="14" lengthAdjust="spacing" textLength="32.5322" x="870.7583" y="107.292">Task</text></g><g class="participant participant-tail" data-participant="Task"><rect fill="#FF6347" height="30.2969" rx="3.5" ry="3.5" style="stroke:#454645;stroke-width:1.5;" width="46.5322" x="863.7583" y="923.9141"/><text fill="#FFFFFF" font-family="sans-serif" font-size="14" lengthAdjust="spacing" textLength="32.5322" x="870.7583" y="943.9092">Task</text></g><g class="participant participant-head" data-participant="User"><rect fill="#FF6347" height="30.2969" rx="3.5" ry="3.5" style="stroke:#454645;stroke-width:1.5;" width="45.9102" x="920.2905" y="87.2969"/><text fill="#FFFFFF" font-family="sans-serif" font-size="14" lengthAdjust="spacing" textLength="31.9102" x="927.2905" y="107.292">User</text></g><g class="participant participant-tail" data-participant="User"><rect fill="#FF6347" height="30.2969" rx="3.5" ry="3.5" style="stroke:#454645;stroke-width:1.5;" width="45.9102" x="920.2905" y="923.9141"/><text fill="#FFFFFF" font-family="sans-serif" font-size="14" lengthAdjust="spacing" textLength="31.9102" x="927.2905" y="943.9092">User</text></g><g class="participant participant-head" data-participant="RCS"><rect fill="#FF6347" height="30.2969" rx="3.5" ry="3.5" style="stroke:#454645;stroke-width:1.5;" width="196.8545" x="1039.397" y="87.2969"/><text fill="#FFFFFF" font-family="sans-serif" font-size="14" lengthAdjust="spacing" textLength="182.8545" x="1046.397" y="107.292">RewardCalculationService</text></g><g class="participant participant-tail" data-participant="RCS"><rect fill="#FF6347" height="30.2969" rx="3.5" ry="3.5" style="stroke:#454645;stroke-width:1.5;" width="196.8545" x="1039.397" y="923.9141"/><text fill="#FFFFFF" font-family="sans-serif" font-size="14" lengthAdjust="spacing" textLength="182.8545" x="1046.397" y="943.9092">RewardCalculationService</text></g><g class="participant participant-head" data-participant="UR"><rect fill="#FF6347" height="30.2969" rx="3.5" ry="3.5" style="stroke:#454645;stroke-width:1.5;" width="120.9824" x="1246.2515" y="87.2969"/><text fill="#FFFFFF" font-family="sans-serif" font-size="14" lengthAdjust="spacing" textLength="106.9824" x="1253.2515" y="107.292">UserRepository</text></g><g class="participant participant-tail" data-participant="UR"><rect fill="#FF6347" height="30.2969" rx="3.5" ry="3.5" style="stroke:#454645;stroke-width:1.5;" width="120.9824" x="1246.2515" y="923.9141"/><text fill="#FFFFFF" font-family="sans-serif" font-size="14" lengthAdjust="spacing" textLength="106.9824" x="1253.2515" y="943.9092">UserRepository</text></g><g class="participant participant-head" data-participant="TB"><rect fill="#FF6347" height="30.2969" rx="3.5" ry="3.5" style="stroke:#454645;stroke-width:1.5;" width="77.1162" x="1377.2339" y="87.2969"/><text fill="#FFFFFF" font-family="sans-serif" font-size="14" lengthAdjust="spacing" textLength="63.1162" x="1384.2339" y="107.292">TalkBack</text></g><g class="participant participant-tail" data-participant="TB"><rect fill="#FF6347" height="30.2969" rx="3.5" ry="3.5" style="stroke:#454645;stroke-width:1.5;" width="77.1162" x="1377.2339" y="923.9141"/><text fill="#FFFFFF" font-family="sans-serif" font-size="14" lengthAdjust="spacing" textLength="63.1162" x="1384.2339" y="943.9092">TalkBack</text></g><g class="participant participant-head" data-participant="FDS"><rect fill="#FF6347" height="30.2969" rx="3.5" ry="3.5" style="stroke:#454645;stroke-width:1.5;" width="173.8994" x="1464.3501" y="87.2969"/><text fill="#FFFFFF" font-family="sans-serif" font-size="14" lengthAdjust="spacing" textLength="159.8994" x="1471.3501" y="107.292">FraudDetectionService</text></g><g class="participant participant-tail" data-participant="FDS"><rect fill="#FF6347" height="30.2969" rx="3.5" ry="3.5" style="stroke:#454645;stroke-width:1.5;" width="173.8994" x="1464.3501" y="923.9141"/><text fill="#FFFFFF" font-family="sans-serif" font-size="14" lengthAdjust="spacing" textLength="159.8994" x="1471.3501" y="943.9092">FraudDetectionService</text></g><g class="participant participant-head" data-participant="Audit"><rect fill="#FF6347" height="30.2969" rx="3.5" ry="3.5" style="stroke:#454645;stroke-width:1.5;" width="81.3818" x="1648.2495" y="87.2969"/><text fill="#FFFFFF" font-family="sans-serif" font-size="14" lengthAdjust="spacing" textLength="67.3818" x="1655.2495" y="107.292">AuditTrail</text></g><g class="participant participant-tail" data-participant="Audit"><rect fill="#FF6347" height="30.2969" rx="3.5" ry="3.5" style="stroke:#454645;stroke-width:1.5;" width="81.3818" x="1648.2495" y="923.9141"/><text fill="#FFFFFF" font-family="sans-serif" font-size="14" lengthAdjust="spacing" textLength="67.3818" x="1655.2495" y="943.9092">AuditTrail</text></g><g><title>TaskButton</title><rect fill="#FFFFFF" height="731.0547" style="stroke:#696969;stroke-width:1;" width="10" x="212.4277" y="184.8594"/></g><g><title>TasksViewModel</title><rect fill="#FFFFFF" height="592.5234" style="stroke:#696969;stroke-width:1;" width="10" x="464.311" y="272.2578"/></g><g><title>EarnTokenUseCase</title><rect fill="#FFFFFF" height="492.125" style="stroke:#696969;stroke-width:1;" width="10" x="684.3862" y="301.3906"/></g><g><title>Task</title><rect fill="#FFFFFF" height="145.6641" style="stroke:#696969;stroke-width:1;" width="10" x="882.0244" y="330.5234"/></g><g><title>User</title><rect fill="#FFFFFF" height="113.3984" style="stroke:#696969;stroke-width:1;" width="10" x="938.2456" y="563.5859"/></g><g><title>RewardCalculationService</title><rect fill="#FFFFFF" height="87.3984" style="stroke:#696969;stroke-width:1;" width="10" x="1132.8242" y="359.6563"/></g><path d="M5,137.0938 L5,155.0938 A3.5,3.5 0 0 0 8.5,158.5938 L1443.5,158.5938 A3.5,3.5 0 0 0 1447,155.0938 L1447,143.5938 L1437,133.5938 L8.5,133.5938 A3.5,3.5 0 0 0 5,137.0938" fill="#7FFFD4" style="stroke:#454645;stroke-width:1.5;"/><path d="M1437,133.5938 L1437,141.8438 A1.75,1.75 0 0 0 1438.75,143.5938 L1447,143.5938 L1437,133.5938" fill="#7FFFD4" style="stroke:#454645;stroke-width:1.5;"/><text fill="#454645" font-family="sans-serif" font-size="13" lengthAdjust="spacing" textLength="183.7456" x="629.8022" y="150.6606">Lemmy's Daily Routine Flow</text><g class="message" data-participant-1="Lemmy" data-participant-2="UI"><polygon fill="#454645" points="200.4277,180.8594,210.4277,184.8594,200.4277,188.8594,204.4277,184.8594" style="stroke:#454645;stroke-width:1;"/><line style="stroke:#454645;stroke-width:1;" x1="35.9868" x2="206.4277" y1="184.8594" y2="184.8594"/><text fill="#000000" font-family="sans-serif" font-size="13" lengthAdjust="spacing" textLength="157.4409" x="42.9868" y="179.7935">Taps "Brush Teeth" task</text></g><g class="message" data-participant-1="UI" data-participant-2="TB"><polygon fill="#454645" points="1403.792,209.9922,1413.792,213.9922,1403.792,217.9922,1407.792,213.9922" style="stroke:#454645;stroke-width:1;"/><line style="stroke:#454645;stroke-width:1;" x1="222.4277" x2="1409.792" y1="213.9922" y2="213.9922"/><text fill="#000000" font-family="sans-serif" font-size="13" lengthAdjust="spacing" textLength="196.3394" x="229.4277" y="208.9263">Announces "Task completed!"</text></g><g class="message" data-participant-1="TB" data-participant-2="Lemmy"><polygon fill="#454645" points="46.9868,239.125,36.9868,243.125,46.9868,247.125,42.9868,243.125" style="stroke:#454645;stroke-width:1;"/><line style="stroke:#454645;stroke-width:1;" x1="40.9868" x2="1414.792" y1="243.125" y2="243.125"/><text fill="#000000" font-family="sans-serif" font-size="13" lengthAdjust="spacing" textLength="148.9224" x="52.9868" y="238.0591">Speaks announcement</text></g><g class="message" data-participant-1="UI" data-participant-2="VM"><polygon fill="#454645" points="452.311,268.2578,462.311,272.2578,452.311,276.2578,456.311,272.2578" style="stroke:#454645;stroke-width:1;"/><line style="stroke:#454645;stroke-width:1;" x1="222.4277" x2="458.311" y1="272.2578" y2="272.2578"/><text fill="#000000" font-family="sans-serif" font-size="13" lengthAdjust="spacing" textLength="166.8989" x="229.4277" y="267.1919">onTaskCompleted(taskId)</text></g><g class="message" data-participant-1="VM" data-participant-2="UC"><polygon fill="#454645" points="672.3862,297.3906,682.3862,301.3906,672.3862,305.3906,676.3862,301.3906" style="stroke:#454645;stroke-width:1;"/><line style="stroke:#454645;stroke-width:1;" x1="474.311" x2="678.3862" y1="301.3906" y2="301.3906"/><text fill="#000000" font-family="sans-serif" font-size="13" lengthAdjust="spacing" textLength="150.4712" x="481.311" y="296.3247">execute(userId, taskId)</text></g><g class="message" data-participant-1="UC" data-participant-2="Task"><polygon fill="#454645" points="870.0244,326.5234,880.0244,330.5234,870.0244,334.5234,874.0244,330.5234" style="stroke:#454645;stroke-width:1;"/><line style="stroke:#454645;stroke-width:1;" x1="694.3862" x2="876.0244" y1="330.5234" y2="330.5234"/><text fill="#000000" font-family="sans-serif" font-size="13" lengthAdjust="spacing" textLength="168.6382" x="701.3862" y="325.4575">markCompleted(by: User)</text></g><g class="message" data-participant-1="Task" data-participant-2="RCS"><polygon fill="#454645" points="1120.8242,355.6563,1130.8242,359.6563,1120.8242,363.6563,1124.8242,359.6563" style="stroke:#454645;stroke-width:1;"/><line style="stroke:#454645;stroke-width:1;" x1="892.0244" x2="1126.8242" y1="359.6563" y2="359.6563"/><text fill="#000000" font-family="sans-serif" font-size="13" lengthAdjust="spacing" textLength="221.7998" x="899.0244" y="354.5903">calculateTokenReward(task, user)</text></g><g class="message" data-participant-1="RCS" data-participant-2="User"><polygon fill="#454645" points="954.2456,384.7891,944.2456,388.7891,954.2456,392.7891,950.2456,388.7891" style="stroke:#454645;stroke-width:1;"/><line style="stroke:#454645;stroke-width:1;" x1="948.2456" x2="1131.8242" y1="388.7891" y2="388.7891"/><text fill="#000000" font-family="sans-serif" font-size="13" lengthAdjust="spacing" textLength="115.375" x="960.2456" y="383.7231">getCurrentLevel()</text></g><g class="message" data-participant-1="RCS" data-participant-2="Task"><polygon fill="#454645" points="903.0244,413.9219,893.0244,417.9219,903.0244,421.9219,899.0244,417.9219" style="stroke:#454645;stroke-width:1;"/><line style="stroke:#454645;stroke-width:1;" x1="897.0244" x2="1131.8242" y1="417.9219" y2="417.9219"/><text fill="#000000" font-family="sans-serif" font-size="13" lengthAdjust="spacing" textLength="89.667" x="909.0244" y="412.856">getDifficulty()</text></g><g class="message" data-participant-1="RCS" data-participant-2="UC"><polygon fill="#454645" points="705.3862,443.0547,695.3862,447.0547,705.3862,451.0547,701.3862,447.0547" style="stroke:#454645;stroke-width:1;"/><line style="stroke:#454645;stroke-width:1;stroke-dasharray:2,2;" x1="699.3862" x2="1136.8242" y1="447.0547" y2="447.0547"/><text fill="#000000" font-family="sans-serif" font-size="13" lengthAdjust="spacing" textLength="109.1606" x="711.3862" y="441.9888">TokenAmount(5)</text></g><g class="message" data-participant-1="Task" data-participant-2="UC"><polygon fill="#454645" points="705.3862,472.1875,695.3862,476.1875,705.3862,480.1875,701.3862,476.1875" style="stroke:#454645;stroke-width:1;"/><line style="stroke:#454645;stroke-width:1;stroke-dasharray:2,2;" x1="699.3862" x2="886.0244" y1="476.1875" y2="476.1875"/><text fill="#000000" font-family="sans-serif" font-size="13" lengthAdjust="spacing" textLength="104.6665" x="711.3862" y="471.1216">TaskCompletion</text></g><g class="message" data-participant-1="UC" data-participant-2="FDS"><polygon fill="#454645" points="1539.2998,501.3203,1549.2998,505.3203,1539.2998,509.3203,1543.2998,505.3203" style="stroke:#454645;stroke-width:1;"/><line style="stroke:#454645;stroke-width:1;" x1="694.3862" x2="1545.2998" y1="505.3203" y2="505.3203"/><text fill="#000000" font-family="sans-serif" font-size="13" lengthAdjust="spacing" textLength="170.2441" x="701.3862" y="500.2544">checkForFraud(user, task)</text></g><g class="message" data-participant-1="FDS" data-participant-2="UC"><polygon fill="#454645" points="705.3862,530.4531,695.3862,534.4531,705.3862,538.4531,701.3862,534.4531" style="stroke:#454645;stroke-width:1;"/><line style="stroke:#454645;stroke-width:1;stroke-dasharray:2,2;" x1="699.3862" x2="1550.2998" y1="534.4531" y2="534.4531"/><text fill="#000000" font-family="sans-serif" font-size="13" lengthAdjust="spacing" textLength="118.022" x="711.3862" y="529.3872">FraudCheckResult</text></g><g class="message" data-participant-1="UC" data-participant-2="User"><polygon fill="#454645" points="926.2456,559.5859,936.2456,563.5859,926.2456,567.5859,930.2456,563.5859" style="stroke:#454645;stroke-width:1;"/><line style="stroke:#454645;stroke-width:1;" x1="694.3862" x2="932.2456" y1="563.5859" y2="563.5859"/><text fill="#000000" font-family="sans-serif" font-size="13" lengthAdjust="spacing" textLength="136.2842" x="701.3862" y="558.52">earnTokens(amount)</text></g><g class="message" data-participant-1="User" data-participant-2="User"><line style="stroke:#454645;stroke-width:1;" x1="948.2456" x2="990.2456" y1="592.7188" y2="592.7188"/><line style="stroke:#454645;stroke-width:1;" x1="990.2456" x2="990.2456" y1="592.7188" y2="605.7188"/><line style="stroke:#454645;stroke-width:1;" x1="949.2456" x2="990.2456" y1="605.7188" y2="605.7188"/><polygon fill="#454645" points="959.2456,601.7188,949.2456,605.7188,959.2456,609.7188,955.2456,605.7188" style="stroke:#454645;stroke-width:1;"/><text fill="#000000" font-family="sans-serif" font-size="13" lengthAdjust="spacing" textLength="107.7959" x="955.2456" y="587.6528">updateBalance()</text></g><g class="message" data-participant-1="User" data-participant-2="User"><line style="stroke:#454645;stroke-width:1;" x1="948.2456" x2="990.2456" y1="634.8516" y2="634.8516"/><line style="stroke:#454645;stroke-width:1;" x1="990.2456" x2="990.2456" y1="634.8516" y2="647.8516"/><line style="stroke:#454645;stroke-width:1;" x1="949.2456" x2="990.2456" y1="647.8516" y2="647.8516"/><polygon fill="#454645" points="959.2456,643.8516,949.2456,647.8516,959.2456,651.8516,955.2456,647.8516" style="stroke:#454645;stroke-width:1;"/><text fill="#000000" font-family="sans-serif" font-size="13" lengthAdjust="spacing" textLength="100.5151" x="955.2456" y="629.7856">checkLevelUp()</text></g><g class="message" data-participant-1="User" data-participant-2="UC"><polygon fill="#454645" points="705.3862,672.9844,695.3862,676.9844,705.3862,680.9844,701.3862,676.9844" style="stroke:#454645;stroke-width:1;"/><line style="stroke:#454645;stroke-width:1;stroke-dasharray:2,2;" x1="699.3862" x2="942.2456" y1="676.9844" y2="676.9844"/><text fill="#000000" font-family="sans-serif" font-size="13" lengthAdjust="spacing" textLength="115.9399" x="711.3862" y="671.9185">TokenTransaction</text></g><g class="message" data-participant-1="UC" data-participant-2="Audit"><polygon fill="#454645" points="1676.9404,702.1172,1686.9404,706.1172,1676.9404,710.1172,1680.9404,706.1172" style="stroke:#454645;stroke-width:1;"/><line style="stroke:#454645;stroke-width:1;" x1="694.3862" x2="1682.9404" y1="706.1172" y2="706.1172"/><text fill="#000000" font-family="sans-serif" font-size="13" lengthAdjust="spacing" textLength="243.9404" x="701.3862" y="701.0513">logTaskCompletion(user, task, result)</text></g><g class="message" data-participant-1="UC" data-participant-2="UR"><polygon fill="#454645" points="1294.7427,731.25,1304.7427,735.25,1294.7427,739.25,1298.7427,735.25" style="stroke:#454645;stroke-width:1;"/><line style="stroke:#454645;stroke-width:1;" x1="694.3862" x2="1300.7427" y1="735.25" y2="735.25"/><text fill="#000000" font-family="sans-serif" font-size="13" lengthAdjust="spacing" textLength="68.9292" x="701.3862" y="730.1841">save(user)</text></g><g class="message" data-participant-1="UR" data-participant-2="UC"><polygon fill="#454645" points="705.3862,760.3828,695.3862,764.3828,705.3862,768.3828,701.3862,764.3828" style="stroke:#454645;stroke-width:1;"/><line style="stroke:#454645;stroke-width:1;stroke-dasharray:2,2;" x1="699.3862" x2="1305.7427" y1="764.3828" y2="764.3828"/><text fill="#000000" font-family="sans-serif" font-size="13" lengthAdjust="spacing" textLength="52.3301" x="711.3862" y="759.3169">Success</text></g><g class="message" data-participant-1="UC" data-participant-2="VM"><polygon fill="#454645" points="485.311,789.5156,475.311,793.5156,485.311,797.5156,481.311,793.5156" style="stroke:#454645;stroke-width:1;"/><line style="stroke:#454645;stroke-width:1;stroke-dasharray:2,2;" x1="479.311" x2="688.3862" y1="793.5156" y2="793.5156"/><text fill="#000000" font-family="sans-serif" font-size="13" lengthAdjust="spacing" textLength="186.0752" x="491.311" y="788.4497">Result.Success(newBalance)</text></g><g class="message" data-participant-1="VM" data-participant-2="VM"><line style="stroke:#454645;stroke-width:1;" x1="474.311" x2="516.311" y1="822.6484" y2="822.6484"/><line style="stroke:#454645;stroke-width:1;" x1="516.311" x2="516.311" y1="822.6484" y2="835.6484"/><line style="stroke:#454645;stroke-width:1;" x1="475.311" x2="516.311" y1="835.6484" y2="835.6484"/><polygon fill="#454645" points="485.311,831.6484,475.311,835.6484,485.311,839.6484,481.311,835.6484" style="stroke:#454645;stroke-width:1;"/><text fill="#000000" font-family="sans-serif" font-size="13" lengthAdjust="spacing" textLength="103.4858" x="481.311" y="817.5825">updateUiState()</text></g><g class="message" data-participant-1="VM" data-participant-2="UI"><polygon fill="#454645" points="233.4277,860.7813,223.4277,864.7813,233.4277,868.7813,229.4277,864.7813" style="stroke:#454645;stroke-width:1;"/><line style="stroke:#454645;stroke-width:1;stroke-dasharray:2,2;" x1="227.4277" x2="468.311" y1="864.7813" y2="864.7813"/><text fill="#000000" font-family="sans-serif" font-size="13" lengthAdjust="spacing" textLength="217.8833" x="239.4277" y="859.7153">UiState(newBalance, celebration)</text></g><g class="message" data-participant-1="UI" data-participant-2="UI"><line style="stroke:#454645;stroke-width:1;" x1="222.4277" x2="264.4277" y1="893.9141" y2="893.9141"/><line style="stroke:#454645;stroke-width:1;" x1="264.4277" x2="264.4277" y1="893.9141" y2="906.9141"/><line style="stroke:#454645;stroke-width:1;" x1="223.4277" x2="264.4277" y1="906.9141" y2="906.9141"/><polygon fill="#454645" points="233.4277,902.9141,223.4277,906.9141,233.4277,910.9141,229.4277,906.9141" style="stroke:#454645;stroke-width:1;"/><text fill="#000000" font-family="sans-serif" font-size="13" lengthAdjust="spacing" textLength="185.1675" x="229.4277" y="888.8481">showCelebrationAnimation()</text></g><!--SRC=[PLHDR-8m4BtxLqovR2BHLRTIjHA7IX0M2Qcz1EYf5zUP5el4pleZBFz-ntPI29mml3TVRzvmv_RO87Jomt3b67FIrGWls3GdA7JJrkZG0eSjjmUuXmt-zQW4mbBoByCRoBfVKtXyU7owV_YTCyQ5qwOFvnOcyJLXBJTE2jbI2PY4L0lld5RlAWirj4NOhVD9YDYjRydsJUBnLLTOHyhRwvZoXnkrrGTKEui5jvZo5BTv8X0UOuZ2J8gXnnWgySXDLV1Q-9exgTK6JIT5Ab4Mczj49T8uaaGufPJbTHlrOS55tyfY3AuCzzMI11VNfLRBgr9pNqctDLmcIU9NnfHs2Bh3VWDJgW2pzFvXOKdi4vJQEwaGLhK-CfOsTVzCkXDporlQsS9ukuSjejjFm0MvQAkouoviYJ5Y4ZzcdYkbFRd19dr1z8QfxYQC24HB-MUmQP4Vo4TzG8F1QodJsolXMeK4W-6gB9HTL_cvCYsT4JDqMX0V_w7m3ZDFag-hATpmQV-CcA7JqDaC6cukyd-SPd7T5n7H62pv_3aibu94ltcC_afkYBrDmO-ZWnb2J6YG48hzGbTuOsZI5-ompl81xniYV2a_FoKLSAS17UQBzUODYUMofvnLE2hKT_bDFaj7lhaafvcI3kIXCD4UnM6bJVHQb2-9bxE0VwUCS16u9LfgS4ZIpuR3oTcCnoOlbGzN57bdlcyhWXQyvhHyclKAZar5bNRjDpgIWgokB1VNyyLQVMln1eXVww-n81TJJi74SV9Xd982BE-IaUZNybntumKvswRqWq-J6ZzxB5Dux8SQxIYOBvar1gNfTtBZw8Fc2z1mSiElvqnJ45WZ_Hs7taTfmmsacucXTg-FnPawLxA9Zop_3m00]--></g></svg>